<svg xmlns="http://www.w3.org/2000/svg" xmlns:xlink="http://www.w3.org/1999/xlink" width="500" zoomAndPan="magnify" viewBox="0 0 375 374.999991" height="500" preserveAspectRatio="xMidYMid meet" version="1.0"><defs><clipPath id="910a56d7a2"><path d="M 2.707031 0 L 50.640625 0 L 50.640625 58.917969 L 2.707031 58.917969 Z M 2.707031 0 " clip-rule="nonzero"/></clipPath><clipPath id="d9c76ef10f"><path d="M 190 40.621094 L 254 40.621094 L 254 334.621094 L 190 334.621094 Z M 190 40.621094 " clip-rule="nonzero"/></clipPath><clipPath id="8967599e86"><path d="M 170 134 L 199 134 L 199 334.621094 L 170 334.621094 Z M 170 134 " clip-rule="nonzero"/></clipPath><clipPath id="b350d09e4a"><path d="M 132 186 L 161 186 L 161 334.621094 L 132 334.621094 Z M 132 186 " clip-rule="nonzero"/></clipPath><clipPath id="762f5653ac"><path d="M 95 238 L 124 238 L 124 334.621094 L 95 334.621094 Z M 95 238 " clip-rule="nonzero"/></clipPath><clipPath id="af9d3d777f"><path d="M 58.0625 283 L 87 283 L 87 334.621094 L 58.0625 334.621094 Z M 58.0625 283 " clip-rule="nonzero"/></clipPath><clipPath id="85acd8510e"><path d="M 188 204 L 316.8125 204 L 316.8125 333 L 188 333 Z M 188 204 " clip-rule="nonzero"/></clipPath><clipPath id="d8a8045262"><path d="M 119 123 L 316.8125 123 L 316.8125 334.621094 L 119 334.621094 Z M 119 123 " clip-rule="nonzero"/></clipPath><clipPath id="450de6c6bb"><path d="M 74 44 L 167 44 L 167 87.832031 L 74 87.832031 Z M 74 44 " clip-rule="nonzero"/></clipPath></defs><rect x="-37.5" width="450" fill="#ffffff" y="-37.499999" height="449.999989" fill-opacity="1"/><rect x="-37.5" width="450" fill="#304b29" y="-37.499999" height="449.999989" fill-opacity="1"/><g clip-path="url(#910a56d7a2)"><path fill="#304b29" d="M 2.707031 0 L 50.640625 0 L 50.640625 58.980469 L 2.707031 58.980469 Z M 2.707031 0 " fill-opacity="1" fill-rule="nonzero"/></g><g clip-path="url(#d9c76ef10f)"><path fill="#4bbc39" d="M 253.113281 83.867188 L 221.898438 40.640625 L 190.671875 83.867188 L 207.484375 83.867188 L 207.484375 334.351562 L 235.550781 334.351562 L 235.550781 83.867188 L 253.113281 83.867188 " fill-opacity="1" fill-rule="nonzero"/></g><g clip-path="url(#8967599e86)"><path fill="#4bbc39" d="M 170.175781 134.035156 L 170.175781 334.351562 L 198.25 334.351562 L 198.25 134.035156 L 170.175781 134.035156 " fill-opacity="1" fill-rule="nonzero"/></g><g clip-path="url(#b350d09e4a)"><path fill="#4bbc39" d="M 132.871094 186.457031 L 132.871094 334.351562 L 160.941406 334.351562 L 160.941406 186.457031 L 132.871094 186.457031 " fill-opacity="1" fill-rule="nonzero"/></g><g clip-path="url(#762f5653ac)"><path fill="#4bbc39" d="M 95.5625 238.875 L 95.5625 334.351562 L 123.636719 334.351562 L 123.636719 238.875 L 95.5625 238.875 " fill-opacity="1" fill-rule="nonzero"/></g><g clip-path="url(#af9d3d777f)"><path fill="#4bbc39" d="M 58.261719 283.804688 L 58.261719 334.351562 L 86.328125 334.351562 L 86.328125 283.804688 L 58.261719 283.804688 " fill-opacity="1" fill-rule="nonzero"/></g><g clip-path="url(#85acd8510e)"><path fill="#2f7a1c" d="M 316.605469 268.511719 C 316.605469 303.792969 287.992188 332.398438 252.710938 332.398438 C 217.425781 332.398438 188.820312 303.792969 188.820312 268.511719 C 188.820312 233.21875 217.425781 204.613281 252.710938 204.613281 C 287.992188 204.613281 316.605469 233.21875 316.605469 268.511719 " fill-opacity="1" fill-rule="nonzero"/></g><path fill="#4bbc39" d="M 302.234375 268.511719 C 302.234375 295.859375 280.058594 318.03125 252.710938 318.03125 C 225.359375 318.03125 203.1875 295.859375 203.1875 268.511719 C 203.1875 241.160156 225.359375 218.988281 252.710938 218.988281 C 280.058594 218.988281 302.234375 241.160156 302.234375 268.511719 " fill-opacity="1" fill-rule="nonzero"/><g clip-path="url(#d8a8045262)"><path stroke-linecap="round" transform="matrix(0.129521, 0, 0, -0.129521, -87.931514, 462.858306)" fill="none" stroke-linejoin="miter" d="M 2757.708701 1630.034809 C 2757.708701 1630.034809 2750.651454 1711.766171 2643.043519 1719.818671 C 2557.300986 1726.212416 2506.030389 1695.902446 2497.103273 1638.630173 C 2497.103273 1638.630173 2484.888808 1556.838492 2535.94829 1530.479373 C 2596.23648 1499.264628 2762.956397 1495.283617 2764.735788 1384.358173 C 2764.735788 1384.358173 2771.551762 1285.79799 2634.387836 1285.79799 C 2634.387836 1285.79799 2502.079537 1282.269367 2495.233405 1365.056301 " stroke="#f78f34" stroke-width="63.361" stroke-opacity="1" stroke-miterlimit="10"/></g><path stroke-linecap="round" transform="matrix(0.129521, 0, 0, -0.129521, -87.931514, 462.858306)" fill="none" stroke-linejoin="miter" d="M 2572.923438 1790.934005 L 2572.923438 1715.294795 " stroke="#f78f34" stroke-width="63.361" stroke-opacity="1" stroke-miterlimit="10"/><path stroke-linecap="round" transform="matrix(0.129521, 0, 0, -0.129521, -87.931514, 462.858306)" fill="none" stroke-linejoin="miter" d="M 2669.67407 1790.934005 L 2669.67407 1715.294795 " stroke="#f78f34" stroke-width="63.361" stroke-opacity="1" stroke-miterlimit="10"/><path stroke-linecap="round" transform="matrix(0.129521, 0, 0, -0.129521, -87.931514, 462.858306)" fill="none" stroke-linejoin="miter" d="M 2581.60928 1285.79799 L 2581.60928 1210.098462 " stroke="#f78f34" stroke-width="63.361" stroke-opacity="1" stroke-miterlimit="10"/><path stroke-linecap="round" transform="matrix(0.129521, 0, 0, -0.129521, -87.931514, 462.858306)" fill="none" stroke-linejoin="miter" d="M 2678.390072 1285.79799 L 2678.390072 1210.098462 " stroke="#f78f34" stroke-width="63.361" stroke-opacity="1" stroke-miterlimit="10"/><path fill="#000000" d="M 101.660156 25.472656 C 102.351562 25.175781 103.050781 24.871094 103.75 24.578125 C 106.15625 23.574219 108.621094 22.640625 110.953125 21.546875 C 112.574219 20.789062 114.097656 19.878906 115.523438 18.917969 C 117.253906 17.75 118.480469 16.472656 117.988281 14.460938 C 117.585938 12.808594 117.910156 11.0625 117.910156 9.183594 C 116.496094 9.941406 115.113281 10.679688 113.621094 11.484375 C 113.472656 14.152344 113.316406 16.863281 111.460938 19.40625 C 111.167969 18.605469 110.878906 17.800781 110.507812 16.769531 C 110.082031 18.238281 109.726562 19.460938 109.238281 21.140625 C 108.046875 19.539062 108.386719 18.273438 108.457031 17.046875 C 108.523438 15.757812 108.679688 14.472656 108.808594 13.046875 C 108.074219 13.15625 107.484375 13.246094 106.722656 13.359375 C 106.941406 16.363281 106.710938 19.269531 105.398438 22.105469 C 104.257812 19.441406 104.941406 16.640625 104.5625 13.996094 C 102.960938 13.628906 102.832031 14.402344 102.664062 15.078125 C 102.199219 17.035156 101.792969 19 101.316406 20.957031 C 101.089844 21.890625 100.757812 22.804688 100.214844 23.707031 C 99.148438 20.65625 100.277344 17.605469 100.230469 14.558594 C 98.75 14.324219 98.621094 14.878906 98.496094 15.648438 C 98.019531 18.574219 97.445312 21.488281 96.894531 24.40625 C 96.859375 24.597656 96.71875 24.78125 96.402344 24.984375 C 95.40625 21.765625 95.394531 18.472656 95.175781 15.007812 C 84.996094 16.234375 74.933594 16.136719 64.796875 15.453125 C 63.910156 17.390625 64.339844 19.445312 62.730469 21.164062 C 62.730469 19.234375 62.730469 17.300781 62.730469 15.253906 C 61.929688 15.191406 61.335938 15.144531 60.601562 15.089844 C 60.152344 17.378906 60.375 19.664062 59.054688 21.792969 C 57.867188 19.523438 58.589844 17.085938 58.257812 14.75 C 58.074219 14.695312 57.886719 14.640625 57.699219 14.585938 C 57.390625 14.882812 56.867188 15.160156 56.808594 15.480469 C 56.644531 16.496094 56.695312 17.535156 56.582031 18.558594 C 56.480469 19.503906 56.285156 20.441406 55.832031 21.394531 C 54.253906 19.160156 55.503906 16.628906 54.710938 14.335938 C 54.511719 14.328125 54.3125 14.324219 54.113281 14.316406 C 53.589844 17.003906 53.0625 19.6875 52.519531 22.457031 C 55.917969 22.617188 59.308594 22.734375 62.6875 22.953125 C 69.660156 23.402344 76.558594 24.171875 83.292969 25.621094 C 84.789062 25.941406 86.226562 26.40625 87.679688 26.835938 C 90.871094 27.785156 92.335938 29.769531 92.503906 32.128906 C 92.734375 35.34375 92.578125 38.574219 92.476562 41.796875 C 92.417969 43.753906 91.210938 45.265625 89.132812 46.523438 C 84.054688 49.601562 78.101562 51.097656 71.867188 52.160156 C 71.066406 52.300781 70.25 52.40625 69.4375 52.503906 C 69.277344 52.523438 69.09375 52.445312 68.488281 52.324219 C 70.984375 51.40625 73.214844 50.652344 75.359375 49.785156 C 79.472656 48.125 83.546875 46.414062 87.621094 44.699219 C 89.269531 44.003906 90.0625 43.050781 89.839844 41.507812 C 89.628906 40.023438 89.9375 38.496094 90 36.988281 C 90.027344 36.402344 90.007812 35.816406 90.007812 35.03125 C 87.742188 36.125 85.773438 37.078125 83.867188 37.996094 C 83.464844 40.050781 83.066406 42.074219 82.671875 44.089844 C 80.988281 42.394531 82.332031 40.550781 81.773438 38.832031 C 80.636719 38.726562 80.382812 39.160156 80.269531 39.890625 C 79.996094 41.726562 79.617188 43.554688 79.21875 45.378906 C 79.109375 45.882812 78.792969 46.367188 78.472656 47.082031 C 76.964844 44.554688 78.3125 42.234375 78.160156 39.949219 C 76.664062 40.058594 76.699219 40.0625 76.554688 40.933594 C 76.171875 43.175781 75.785156 45.414062 75.347656 47.652344 C 75.253906 48.160156 74.949219 48.640625 74.566406 49.109375 C 73.695312 46.1875 74.554688 43.300781 74.695312 40.296875 C 74.035156 40.433594 73.519531 40.542969 72.96875 40.65625 C 73.074219 43.570312 72.457031 46.359375 71.269531 49.332031 C 69.996094 47.84375 70.542969 46.4375 70.4375 45.113281 C 70.332031 43.824219 70.414062 42.527344 70.414062 40.945312 C 67.679688 41.617188 65.042969 41.613281 62.484375 42.542969 C 60.160156 43.386719 57.359375 43.535156 54.746094 43.902344 C 52.507812 44.210938 50.238281 44.398438 48.121094 44.621094 C 47.839844 47.394531 47.578125 49.980469 47.308594 52.65625 C 49.753906 52.65625 52.183594 52.613281 54.613281 52.667969 C 56.972656 52.71875 59.332031 52.871094 61.773438 53.375 C 61.25 53.542969 60.746094 53.777344 60.199219 53.867188 C 49.957031 55.621094 39.667969 56.105469 29.304688 54.449219 C 27.058594 54.09375 24.792969 53.816406 22.554688 53.441406 C 15.847656 52.324219 15.101562 52 10.535156 48.472656 C 7.578125 48.664062 4.578125 48.859375 1.125 49.078125 C 4.296875 49.304688 7.015625 49.496094 9.742188 49.6875 C 9.75 49.828125 9.757812 49.972656 9.769531 50.117188 C 8.726562 50.238281 7.683594 50.445312 6.636719 50.476562 C -1.726562 50.695312 -10.089844 50.855469 -18.449219 51.089844 C -22.949219 51.214844 -27.441406 51.496094 -31.941406 51.625 C -39.902344 51.855469 -47.71875 51.140625 -55.339844 49.390625 C -58.574219 48.648438 -60.882812 47.257812 -62.1875 44.765625 C -64.179688 40.957031 -65.625 37.03125 -65.808594 33 C -65.960938 29.675781 -64.992188 26.4375 -61.066406 24.023438 C -55.832031 20.808594 -50.179688 18.15625 -44.035156 16.105469 C -35.039062 13.105469 -25.777344 10.636719 -15.972656 9.5625 C -11.808594 9.109375 -7.5625 8.808594 -3.355469 8.828125 C 0.0078125 8.84375 3.433594 9.242188 6.707031 9.855469 C 11.214844 10.695312 14.320312 12.871094 15.234375 16.402344 C 16.03125 19.492188 16.617188 22.617188 17.335938 25.898438 C 25.796875 23.253906 34.90625 23.179688 44.4375 22.5625 C 43.460938 22.183594 43 22.007812 42.546875 21.820312 C 39.808594 20.683594 37.597656 19.347656 37.496094 16.671875 C 37.402344 14.210938 36.855469 11.761719 36.617188 9.304688 C 36.398438 7.042969 37.460938 5.109375 39.066406 3.148438 C 40.820312 1.007812 43.003906 -0.609375 45.863281 -1.804688 C 50.003906 -3.535156 54.460938 -4.617188 59.164062 -4.972656 C 61.828125 -5.175781 64.550781 -5.007812 67.289062 -4.714844 C 65.238281 -4.425781 63.191406 -4.152344 61.152344 -3.847656 C 56.625 -3.167969 52.207031 -2.238281 48.21875 -0.449219 C 46.734375 0.21875 45.261719 0.976562 44.039062 1.886719 C 40.746094 4.332031 41.441406 7.617188 45.566406 9.214844 C 49.363281 10.683594 53.554688 11.226562 57.714844 11.78125 C 66.164062 12.910156 74.699219 13.304688 83.265625 13.03125 C 91.371094 12.769531 99.332031 11.753906 107.195312 10.28125 C 110.015625 9.75 112.519531 8.765625 114.640625 7.285156 C 116.84375 5.738281 117.121094 4.03125 115.476562 2.113281 C 114.03125 0.433594 111.9375 -0.703125 109.46875 -1.355469 C 106.96875 -2.015625 104.375 -2.496094 101.804688 -3.007812 C 97.019531 -3.964844 92.21875 -4.890625 87.425781 -5.839844 C 86.832031 -5.957031 86.265625 -6.164062 85.761719 -6.667969 C 90.347656 -6.351562 94.945312 -6.128906 99.511719 -5.695312 C 102.875 -5.371094 106.253906 -4.949219 109.496094 -4.242188 C 111.644531 -3.769531 113.71875 -2.878906 115.5625 -1.902344 C 119.164062 0.0234375 120.890625 2.8125 120.820312 6.078125 C 120.746094 9.570312 120.363281 13.058594 120.105469 16.546875 C 119.945312 18.617188 118.542969 20.160156 116.382812 21.375 C 113.699219 22.875 110.707031 23.898438 107.503906 24.585938 C 105.609375 24.996094 103.714844 25.390625 101.820312 25.792969 C 101.761719 25.6875 101.710938 25.578125 101.660156 25.472656 Z M 6.210938 38.832031 C 5.714844 38.296875 5.039062 37.816406 4.761719 37.230469 C 4.085938 35.816406 3.609375 34.347656 3.023438 32.914062 C 2.878906 32.566406 2.625 32.246094 2.414062 31.917969 C 2.207031 31.945312 1.996094 31.972656 1.789062 32.007812 C 1.433594 33.339844 2.449219 34.597656 2.691406 35.886719 C 2.964844 37.332031 3.46875 38.753906 3.875 40.203125 C 5.125 39.984375 5.988281 39.675781 6.152344 38.78125 C 7.960938 38.726562 8.179688 38.566406 7.738281 37.570312 C 7.175781 36.277344 6.546875 34.996094 6.039062 33.6875 C 5.65625 32.691406 5.410156 31.667969 5.082031 30.59375 C 3.746094 31.078125 4.519531 31.589844 4.664062 32.050781 C 5.339844 34.289062 6.707031 36.441406 6.210938 38.832031 Z M -44.257812 38.90625 C -31.941406 38.632812 -20.296875 36.214844 -8.972656 32.832031 C -3.589844 31.21875 1.535156 29.199219 5.894531 26.257812 C 8.097656 24.769531 9.972656 23.089844 10.976562 20.960938 C 13.054688 16.605469 10.25 12.535156 4.316406 11.355469 C 2.363281 10.96875 0.371094 10.699219 -1.617188 10.433594 C -2.945312 10.257812 -4.308594 10.039062 -5.640625 10.089844 C -19.429688 10.636719 -32.363281 13.640625 -44.746094 18.003906 C -52.269531 20.65625 -59.265625 23.921875 -64.03125 29.289062 C -64.8125 30.164062 -64.933594 30.785156 -64.355469 31.695312 C -61.910156 35.574219 -58.007812 38.039062 -52.234375 38.585938 C -49.601562 38.835938 -46.921875 38.808594 -44.257812 38.90625 Z M 17.523438 27.332031 C 17.902344 30.539062 16.128906 33.046875 13.773438 35.40625 C 12.308594 36.875 12.605469 38.207031 14.726562 39.160156 C 15.734375 39.613281 16.875 40.007812 18.019531 40.160156 C 21.8125 40.664062 25.613281 41.265625 29.445312 41.433594 C 36.40625 41.742188 43.40625 41.664062 50.375 41.933594 C 56.699219 42.183594 62.800781 41.59375 68.835938 40.199219 C 74.125 38.972656 79.277344 37.554688 83.964844 35.34375 C 85.351562 34.691406 86.722656 33.925781 87.769531 33.007812 C 89.554688 31.4375 88.984375 29.6875 86.527344 28.796875 C 85.132812 28.289062 83.652344 27.863281 82.15625 27.554688 C 75.3125 26.152344 68.332031 25.382812 61.265625 24.945312 C 53.183594 24.445312 45.101562 24.546875 37.027344 24.976562 C 30.53125 25.320312 24.03125 25.71875 17.523438 27.332031 Z M -1.292969 42.601562 C -2.5 39.757812 -3.574219 37.234375 -4.6875 34.613281 C -15.125 37.902344 -25.710938 40.039062 -36.769531 41.1875 C -36.351562 43.59375 -35.953125 45.890625 -35.550781 48.183594 C -35.757812 48.210938 -35.96875 48.238281 -36.175781 48.269531 C -36.515625 47.4375 -36.914062 46.613281 -37.1875 45.769531 C -37.617188 44.4375 -37.910156 43.078125 -38.386719 41.757812 C -38.484375 41.488281 -39.144531 41.335938 -40.0625 40.859375 C -39.34375 44.066406 -38.746094 46.734375 -38.109375 49.566406 C -24.84375 50.121094 -13.0625 46.628906 -1.292969 42.601562 Z M 35.925781 52.511719 C 39.363281 53.117188 42.957031 53.046875 46.46875 52.933594 C 46.46875 50.089844 46.46875 47.507812 46.46875 44.777344 C 45.785156 44.8125 45.125 44.839844 44.5625 44.867188 C 44.058594 47.21875 44.394531 49.5 42.996094 51.820312 C 41.949219 50.527344 42.285156 49.347656 42.238281 48.222656 C 42.1875 47.09375 42.226562 45.960938 42.226562 44.828125 C 42.019531 44.765625 41.820312 44.699219 41.621094 44.632812 C 41.261719 44.90625 40.675781 45.148438 40.597656 45.460938 C 40.433594 46.125 40.636719 46.835938 40.507812 47.511719 C 40.226562 49 40.414062 50.582031 38.960938 52.253906 C 38 49.605469 38.257812 47.214844 38.144531 44.90625 C 36.863281 44.542969 36.554688 44.910156 36.5 45.71875 C 36.367188 47.910156 36.136719 50.09375 35.925781 52.511719 Z M 11.429688 34.777344 C 13.167969 33.183594 14.304688 31.65625 15.160156 30.003906 C 15.308594 29.707031 15.3125 29.3125 15.199219 29.007812 C 14.613281 27.457031 13.960938 25.917969 13.277344 24.242188 C 11.84375 25.585938 10.496094 26.851562 9.265625 28.007812 C 9.988281 30.273438 10.664062 32.386719 11.429688 34.777344 Z M 47.359375 13.035156 C 46.765625 16.234375 46.199219 19.3125 45.621094 22.429688 C 47.71875 22.429688 49.589844 22.429688 51.398438 22.429688 C 51.558594 19.710938 51.738281 17.128906 51.828125 14.546875 C 51.839844 14.226562 51.390625 13.894531 51.15625 13.570312 C 50.992188 13.617188 50.835938 13.65625 50.667969 13.699219 C 50.070312 16.402344 49.460938 19.105469 48.855469 21.808594 C 48.609375 21.800781 48.363281 21.789062 48.113281 21.78125 C 48.09375 20.941406 47.976562 20.09375 48.066406 19.257812 C 48.25 17.554688 48.519531 15.859375 48.800781 14.164062 C 48.925781 13.417969 48.75 12.929688 47.359375 13.035156 Z M 39.652344 9.167969 C 39.652344 10.144531 39.648438 10.941406 39.652344 11.738281 C 39.664062 13.503906 39.789062 15.273438 39.65625 17.035156 C 39.535156 18.6875 39.996094 19.25 42.257812 19.792969 C 42.257812 17.625 42.128906 15.378906 42.304688 13.148438 C 42.433594 11.496094 41.820312 10.238281 39.652344 9.167969 Z M -62.519531 37.707031 C -61.441406 40.433594 -60.59375 42.78125 -59.570312 45.085938 C -59.191406 45.941406 -58.148438 46.4375 -56.664062 46.691406 C -57.164062 45.039062 -57.902344 43.539062 -58.015625 42.019531 C -58.167969 39.980469 -59.550781 38.796875 -62.519531 37.707031 Z M 33.527344 44.570312 C 33.335938 44.625 33.148438 44.675781 32.960938 44.730469 C 32.675781 47.136719 32.382812 49.539062 32.078125 52.097656 C 32.921875 52.191406 33.648438 52.273438 34.414062 52.363281 C 34.414062 49.929688 34.449219 47.695312 34.378906 45.464844 C 34.367188 45.164062 33.824219 44.867188 33.527344 44.570312 Z M -43.636719 41.535156 C -43.105469 44.128906 -42.597656 46.617188 -42.066406 49.210938 C -41.164062 49.210938 -40.347656 49.210938 -39.566406 49.210938 C -40.386719 46.828125 -41.160156 44.582031 -41.929688 42.328125 C -42.140625 41.722656 -42.261719 41.046875 -43.636719 41.535156 Z M 9.613281 47.566406 C 9.605469 46.449219 8.789062 46.425781 7.746094 46.476562 C 3.988281 46.664062 0.226562 46.800781 -3.535156 46.964844 C -5.339844 47.042969 -7.140625 47.144531 -8.941406 47.234375 C -8.9375 47.347656 -8.929688 47.457031 -8.925781 47.566406 C -2.792969 47.566406 3.335938 47.566406 9.613281 47.566406 Z M 28.566406 44.5 C 28.566406 46.847656 28.566406 49.199219 28.566406 51.691406 C 28.949219 51.710938 29.460938 51.738281 30.082031 51.769531 C 30.238281 49.589844 30.382812 47.5 30.550781 45.414062 C 30.617188 44.601562 30.164062 44.277344 28.566406 44.5 Z M 0.316406 41.777344 C 1.601562 41.488281 2.328125 41.164062 1.855469 40.132812 C 0.8125 37.902344 -0.117188 35.648438 -1.261719 33 C -1.703125 33.628906 -2.222656 34.015625 -2.136719 34.304688 C -1.398438 36.753906 -0.550781 39.1875 0.316406 41.777344 Z M 7.914062 28.929688 C 7.472656 29.132812 7.175781 29.222656 7.1875 29.277344 C 7.722656 31.597656 8.285156 33.917969 8.867188 36.324219 C 9.496094 36.074219 10.117188 35.824219 10.746094 35.574219 C 9.796875 33.34375 8.890625 31.214844 7.914062 28.929688 Z M 22.917969 44.050781 C 22.730469 44.03125 22.535156 44.011719 22.34375 43.992188 C 22.171875 46.015625 21.9375 48.039062 21.851562 50.066406 C 21.800781 51.144531 22.78125 50.949219 23.742188 50.792969 C 23.457031 48.464844 23.1875 46.257812 22.917969 44.050781 Z M 9.003906 45.441406 C 9 45.234375 9 45.023438 8.996094 44.816406 C 4.832031 44.589844 0.699219 45.285156 -3.453125 45.441406 C 0.699219 45.441406 4.851562 45.441406 9.003906 45.441406 Z M -48.660156 41.386719 C -48.855469 41.414062 -49.042969 41.445312 -49.238281 41.476562 C -48.582031 43.824219 -47.945312 46.179688 -47.25 48.527344 C -47.207031 48.664062 -46.695312 48.726562 -46.023438 48.949219 C -46.96875 46.238281 -47.816406 43.8125 -48.660156 41.386719 Z M -53.863281 41.058594 C -54.007812 44.511719 -53.023438 47.261719 -51.550781 47.984375 C -52.226562 45.828125 -52.863281 43.804688 -53.507812 41.785156 C -53.589844 41.535156 -53.742188 41.296875 -53.863281 41.058594 Z M 14.484375 41.871094 C 13.464844 44.058594 13.445312 47.269531 14.484375 48.40625 C 14.484375 46.199219 14.484375 44.179688 14.484375 41.871094 Z M 25.804688 51.253906 C 26.457031 49.941406 26.433594 45.644531 25.769531 44.445312 C 25.070312 48.058594 25.082031 50.3125 25.804688 51.253906 Z M 19.878906 50.371094 C 19.695312 48.597656 19.542969 47.132812 19.359375 45.359375 C 18.875 47.078125 18.472656 48.507812 18.054688 49.996094 C 18.644531 50.117188 19.144531 50.21875 19.878906 50.371094 Z M 17.097656 49.707031 C 16.929688 47.652344 16.789062 45.898438 16.613281 43.675781 C 16.410156 45.105469 16.265625 46.054688 16.15625 47.003906 C 16.046875 47.902344 14.96875 48.964844 17.097656 49.707031 Z M -50.636719 42.757812 C -50.773438 42.777344 -50.914062 42.796875 -51.050781 42.816406 C -50.835938 43.800781 -50.746094 44.816406 -50.359375 45.765625 C -50.003906 46.640625 -50.554688 47.789062 -48.75 48.308594 C -49.378906 46.457031 -50.007812 44.609375 -50.636719 42.757812 Z M 3.644531 42.273438 C 3.65625 42.292969 3.667969 42.3125 3.679688 42.328125 C 5.316406 42.328125 6.957031 42.328125 8.589844 42.328125 C 8.574219 42.179688 8.554688 42.03125 8.53125 41.878906 C 6.902344 42.011719 5.269531 42.140625 3.644531 42.273438 Z M 44.375 21.054688 C 44.375 20.027344 44.375 19.003906 44.375 17.980469 C 44.3125 19.003906 43.210938 20.007812 44.375 21.054688 Z M 5.960938 40.496094 C 7.160156 40.539062 7.738281 40.558594 8.292969 40.578125 C 8.328125 40.054688 8.359375 39.636719 8.394531 39.046875 C 7.683594 39.46875 7.101562 39.816406 5.960938 40.496094 Z M -44.574219 46.507812 C -44.691406 46.53125 -44.804688 46.554688 -44.921875 46.578125 C -44.679688 47.363281 -44.441406 48.148438 -44.199219 48.929688 C -44 48.886719 -43.792969 48.851562 -43.597656 48.808594 C -43.921875 48.042969 -44.25 47.277344 -44.574219 46.507812 Z M 45.199219 12.285156 C 44.945312 12.28125 44.6875 12.277344 44.425781 12.273438 C 44.480469 13.050781 44.527344 13.828125 44.582031 14.605469 C 44.671875 14.605469 44.769531 14.605469 44.863281 14.605469 C 44.972656 13.832031 45.085938 13.058594 45.199219 12.285156 Z M -45.84375 42.898438 C -45.765625 42.882812 -45.6875 42.867188 -45.609375 42.847656 C -45.773438 42.402344 -45.933594 41.957031 -46.101562 41.511719 C -46.230469 41.542969 -46.355469 41.570312 -46.484375 41.601562 C -46.273438 42.035156 -46.058594 42.464844 -45.84375 42.898438 Z M -45.84375 42.898438 " fill-opacity="1" fill-rule="evenodd"/><g clip-path="url(#450de6c6bb)"><path fill="#000000" d="M 120.453125 46.003906 C 118.085938 46.113281 115.71875 46.273438 113.347656 46.324219 C 104.59375 46.511719 96.28125 48.113281 88.226562 50.574219 C 85.660156 51.359375 83.273438 52.375 81.34375 53.902344 C 79.667969 55.230469 78.484375 56.734375 78.015625 58.550781 C 77.5 60.515625 78.082031 62.253906 79.84375 63.714844 C 80.816406 64.519531 81.96875 65.234375 83.164062 65.855469 C 89.707031 69.253906 97.042969 71.101562 104.886719 71.933594 C 115.59375 73.070312 126.335938 73.109375 137.070312 72.28125 C 143.125 71.8125 148.988281 70.691406 154.390625 68.453125 C 157.5 67.164062 159.667969 65.304688 161.050781 62.890625 C 162.839844 59.777344 162.234375 57.53125 158.792969 55.347656 C 156.558594 53.925781 154.164062 52.640625 151.84375 51.289062 C 151.140625 50.878906 150.449219 50.457031 149.898438 49.890625 C 156.738281 50.988281 162.820312 52.898438 165.75 58.15625 C 166.097656 58.78125 166.320312 59.472656 166.394531 60.144531 C 166.941406 64.964844 166.476562 69.664062 164.660156 74.386719 C 163.683594 76.90625 161.769531 78.546875 159.3125 80.070312 C 153.03125 83.972656 145.636719 85.957031 137.65625 86.65625 C 124.414062 87.808594 111.222656 87.53125 98.234375 85.082031 C 91.382812 83.792969 85.070312 81.632812 79.679688 78.132812 C 76.253906 75.90625 74.164062 73.296875 74.445312 69.726562 C 74.699219 66.375 74.550781 63.011719 74.628906 59.65625 C 74.664062 58.011719 75.160156 56.566406 76.566406 55.121094 C 78.785156 52.835938 81.269531 50.878906 84.695312 49.726562 C 95.15625 46.203125 106.050781 44.277344 117.613281 45.046875 C 118.5625 45.113281 119.503906 45.273438 120.449219 45.390625 C 120.449219 45.597656 120.453125 45.796875 120.453125 46.003906 Z M 104.234375 82.75 C 103.585938 79.761719 104.367188 77.304688 104.804688 74.71875 C 103.984375 74.644531 103.3125 74.578125 102.636719 74.511719 C 102.191406 77.363281 101.765625 80.066406 101.320312 82.933594 C 113.136719 84.703125 124.835938 85.027344 136.613281 83.96875 C 136.804688 80.933594 136.976562 78.152344 137.152344 75.382812 C 128.257812 75.382812 119.585938 75.382812 110.84375 75.382812 C 110.605469 76.621094 110.417969 77.835938 110.132812 79.039062 C 109.867188 80.160156 110.03125 81.394531 108.378906 82.234375 C 108.703125 79.949219 109.035156 77.664062 109.390625 75.179688 C 108.542969 75.085938 107.523438 74.972656 106.433594 74.847656 C 105.824219 77.472656 105.972656 80.015625 104.234375 82.75 Z M 154.140625 80.152344 C 157.851562 79.136719 160.316406 77.292969 162.804688 75.496094 C 163.164062 75.238281 163.152344 74.625 163.160156 74.175781 C 163.199219 72.527344 163.167969 70.882812 163.164062 69.234375 C 163.160156 68.171875 163.164062 67.109375 163.164062 65.820312 C 161.589844 67.03125 160.355469 68.105469 158.941406 69.03125 C 157.710938 69.839844 155.734375 70.269531 155.089844 71.238281 C 154.378906 72.292969 154.867188 73.78125 154.746094 75.074219 C 154.597656 76.699219 154.363281 78.316406 154.140625 80.152344 Z M 144.894531 74.183594 C 144.648438 74.148438 144.398438 74.117188 144.152344 74.085938 C 144.058594 74.554688 143.886719 75.019531 143.871094 75.488281 C 143.808594 77.335938 143.804688 79.183594 143.753906 81.027344 C 143.738281 81.707031 143.691406 82.394531 142.609375 82.703125 C 142.34375 82.527344 141.984375 82.402344 141.976562 82.265625 C 141.757812 79.769531 141.585938 77.265625 141.398438 74.636719 C 140.789062 74.753906 140.148438 74.875 139.5625 74.988281 C 139.238281 77.984375 138.929688 80.8125 138.601562 83.847656 C 140.820312 83.503906 142.75 83.207031 144.417969 82.949219 C 144.585938 79.855469 144.742188 77.019531 144.894531 74.183594 Z M 100.21875 82.742188 C 100.21875 79.707031 100.21875 76.9375 100.21875 74.058594 C 99.4375 74 98.664062 73.941406 97.773438 73.878906 C 97.398438 76.699219 97.042969 79.371094 96.6875 82.089844 C 97.894531 82.3125 98.851562 82.492188 100.21875 82.742188 Z M 77.183594 65.644531 C 75.777344 69.019531 75.714844 72.925781 79.933594 74.960938 C 79.933594 73.125 79.644531 71.410156 80.007812 69.769531 C 80.449219 67.746094 79.308594 66.574219 77.183594 65.644531 Z M 94.851562 81.601562 C 94.851562 78.597656 94.851562 75.960938 94.851562 73.226562 C 94.40625 73.082031 93.933594 72.890625 93.429688 72.777344 C 93.195312 72.722656 92.910156 72.808594 92.617188 72.835938 C 92.355469 75.496094 92.097656 78.128906 91.835938 80.828125 C 92.832031 81.085938 93.664062 81.292969 94.851562 81.601562 Z M 150.449219 81.378906 C 151.726562 81.257812 152.625 81.113281 152.691406 80.117188 C 152.878906 77.394531 153.085938 74.671875 153.289062 71.851562 C 151.882812 71.992188 151.0625 72.304688 151.128906 73.515625 C 151.214844 75.085938 151.082031 76.667969 150.953125 78.242188 C 150.871094 79.246094 150.636719 80.246094 150.449219 81.378906 Z M 149.082031 73.1875 C 147.335938 73.589844 147.339844 73.589844 147.304688 74.523438 C 147.25 75.824219 147.261719 77.128906 147.121094 78.421875 C 146.976562 79.699219 146.679688 80.96875 146.414062 82.429688 C 147.3125 82.269531 147.980469 82.15625 148.554688 82.054688 C 148.730469 79.082031 148.902344 76.226562 149.082031 73.1875 Z M 84.117188 77.875 C 84.945312 78.21875 85.628906 78.503906 86.703125 78.949219 C 86.703125 77.265625 86.761719 75.839844 86.6875 74.425781 C 86.617188 73.117188 87.675781 71.722656 85.96875 70.464844 C 85.367188 72.859375 84.769531 75.253906 84.117188 77.875 Z M 89.613281 79.984375 C 89.941406 77.515625 90.195312 75.226562 90.574219 72.949219 C 90.714844 72.105469 90.492188 71.6875 89.234375 71.710938 C 88.832031 73.984375 88.476562 76.207031 88.035156 78.414062 C 87.832031 79.441406 88.300781 79.957031 89.613281 79.984375 Z M 82.042969 68.765625 C 81.722656 71.003906 81.390625 73.234375 81.082031 75.46875 C 80.980469 76.207031 81.457031 76.621094 82.507812 76.707031 C 82.886719 74.59375 83.257812 72.496094 83.664062 70.402344 C 83.839844 69.511719 83.539062 68.917969 82.042969 68.765625 Z M 82.042969 68.765625 " fill-opacity="1" fill-rule="evenodd"/></g><path fill="#000000" d="M 120.480469 52.753906 C 118.640625 52.308594 117.390625 52.554688 116.03125 53.089844 C 111.511719 54.878906 106.910156 56.558594 102.203125 58.089844 C 105.320312 55.800781 109.441406 54.675781 112.726562 52.53125 C 108.664062 54.035156 104.601562 55.539062 100.539062 57.042969 C 100.53125 56.917969 100.519531 56.789062 100.507812 56.660156 C 99.847656 56.546875 99.1875 56.433594 98.273438 56.277344 C 100.457031 55.320312 102.539062 54.410156 104.617188 53.496094 C 99.492188 53.410156 95.140625 54.785156 91.382812 57.183594 C 89.746094 58.226562 89.410156 59.644531 90.320312 61.117188 C 90.898438 62.046875 91.640625 62.917969 92.304688 63.8125 C 87.953125 63.5 85.382812 59.625 87.777344 56.8125 C 88.492188 55.96875 89.550781 55.234375 90.636719 54.625 C 94.546875 52.429688 98.976562 51.253906 103.855469 50.890625 C 112.566406 50.238281 121.269531 50.027344 129.976562 50.953125 C 133.039062 51.28125 136.117188 51.613281 138.90625 52.847656 C 138.214844 52.8125 137.519531 52.730469 136.835938 52.765625 C 136.230469 52.800781 135.558594 52.859375 135.046875 53.085938 C 130.625 55.023438 126.269531 57.058594 121.808594 58.957031 C 118.457031 60.378906 114.988281 61.644531 111.5625 62.96875 C 111.269531 63.082031 110.9375 63.136719 110.625 63.21875 C 110.535156 63.089844 110.445312 62.964844 110.355469 62.835938 C 117.949219 59.507812 125.539062 56.171875 133.507812 52.675781 C 131.046875 52.527344 129.253906 52.546875 127.222656 53.414062 C 121.601562 55.824219 115.742188 57.921875 109.808594 59.910156 C 115 57.058594 120.820312 55.0625 126.492188 52.839844 C 124.15625 52.300781 123.960938 52.398438 122.109375 53.148438 C 117.382812 55.0625 112.550781 56.820312 107.605469 58.390625 C 107.5 58.246094 107.398438 58.097656 107.300781 57.953125 C 111.589844 56.261719 115.878906 54.566406 120.480469 52.753906 Z M 120.480469 52.753906 " fill-opacity="1" fill-rule="evenodd"/><path fill="#000000" d="M 105.988281 0.476562 C 107.28125 1.160156 108.269531 1.523438 108.992188 2.085938 C 110.8125 3.5 110.25 5.628906 107.59375 6.460938 C 104.480469 7.433594 101.21875 8.191406 97.957031 8.863281 C 87.523438 11.023438 76.871094 10.84375 66.203125 10.363281 C 61.507812 10.152344 56.867188 9.695312 52.425781 8.480469 C 51.144531 8.128906 49.839844 7.726562 48.71875 7.15625 C 46.777344 6.15625 46.570312 4.390625 48.046875 3.019531 C 49.300781 1.851562 50.925781 1.21875 53.992188 0.847656 C 53.082031 1.425781 52.511719 1.792969 51.9375 2.15625 C 51.449219 2.464844 50.914062 2.742188 50.460938 3.078125 C 48.558594 4.507812 48.714844 5.46875 51.269531 6.058594 C 54.324219 6.761719 57.476562 7.492188 60.636719 7.628906 C 68.238281 7.96875 75.878906 8.167969 83.496094 8.054688 C 90.402344 7.953125 97.140625 6.738281 103.691406 5.085938 C 106.816406 4.304688 106.773438 4.210938 106.257812 1.863281 C 106.1875 1.542969 106.132812 1.222656 105.988281 0.476562 Z M 105.988281 0.476562 " fill-opacity="1" fill-rule="evenodd"/><path fill="#000000" d="M 80.65625 0.652344 C 78.382812 1.585938 76.109375 2.519531 73.832031 3.453125 C 73.734375 3.378906 73.636719 3.308594 73.542969 3.234375 C 73.828125 2.972656 74.085938 2.679688 74.414062 2.445312 C 74.742188 2.21875 75.152344 2.054688 75.523438 1.863281 C 75.398438 1.742188 75.269531 1.617188 75.144531 1.496094 C 73.417969 2.304688 71.695312 3.109375 69.96875 3.921875 C 70.554688 2.582031 72.09375 2.03125 73.402344 1.308594 C 74.761719 0.5625 76.167969 -0.136719 77.273438 -1.1875 C 74.332031 0.0859375 71.398438 1.363281 68.460938 2.640625 C 68.347656 2.523438 68.230469 2.410156 68.117188 2.296875 C 69.191406 1.082031 71.070312 0.4375 72.726562 -0.941406 C 70.671875 -0.941406 69.023438 -0.941406 67.347656 -0.941406 C 67.332031 -2.054688 68.1875 -2.226562 68.988281 -2.269531 C 72.085938 -2.4375 75.21875 -2.785156 78.296875 -2.625 C 83.136719 -2.378906 87.945312 -1.773438 92.769531 -1.328125 C 93.632812 -1.25 94.492188 -1.191406 96.011719 -1.070312 C 92.464844 1.394531 88.832031 2.933594 85.222656 4.488281 C 85.070312 4.335938 84.917969 4.183594 84.761719 4.027344 C 87.382812 2.511719 90 1 92.644531 -0.53125 C 91.039062 -1.035156 91.050781 -1.027344 90.152344 -0.269531 C 89.789062 0.0351562 89.421875 0.363281 88.972656 0.585938 C 85.535156 2.253906 82.078125 3.902344 78.460938 5.382812 C 79.425781 3.730469 81.488281 2.988281 83.261719 2.035156 C 85.109375 1.039062 87.074219 0.167969 89.117188 -0.816406 C 87.917969 -1.28125 87.066406 -0.894531 86.160156 -0.417969 C 83.679688 0.886719 81.160156 2.148438 78.640625 3.410156 C 78.148438 3.65625 77.578125 3.824219 76.777344 3.761719 C 78.144531 2.8125 79.507812 1.863281 80.875 0.917969 C 80.804688 0.832031 80.726562 0.742188 80.65625 0.652344 Z M 80.65625 0.652344 " fill-opacity="1" fill-rule="evenodd"/><path fill="#000000" d="M 131.960938 66.566406 C 138.339844 64.949219 145.683594 64.992188 150.519531 60.652344 C 150.417969 60.484375 150.316406 60.316406 150.210938 60.144531 C 148 61.058594 145.792969 61.96875 143.589844 62.878906 C 145.453125 60.898438 148.546875 60.167969 150.859375 58.671875 C 150.769531 58.554688 150.679688 58.433594 150.59375 58.316406 C 147.285156 59.628906 143.976562 60.9375 140.667969 62.25 C 140.570312 62.125 140.476562 62 140.378906 61.878906 C 143.121094 59.933594 146.800781 58.972656 149.773438 57.183594 C 149.207031 56.34375 148.652344 56.714844 147.988281 56.996094 C 144.246094 58.59375 140.480469 60.160156 136.714844 61.730469 C 136.269531 61.914062 135.78125 62.035156 135.308594 62.183594 C 135.210938 62.054688 135.109375 61.921875 135.011719 61.796875 C 138.527344 60.105469 142.050781 58.421875 145.558594 56.71875 C 146.226562 56.390625 146.886719 56.03125 147.464844 55.625 C 148.878906 54.632812 150.34375 54.519531 151.871094 55.484375 C 153.84375 56.726562 154.695312 58.347656 154.117188 60.265625 C 153.476562 62.410156 151.734375 64.007812 149.039062 64.832031 C 147.105469 65.417969 145.019531 65.855469 142.953125 66.03125 C 139.308594 66.34375 135.628906 66.402344 131.960938 66.566406 Z M 131.960938 66.566406 " fill-opacity="1" fill-rule="evenodd"/><path fill="#000000" d="M 147.785156 50.382812 C 140.207031 49.144531 132.628906 47.910156 124.964844 46.65625 C 128.933594 45.273438 143.972656 47.460938 147.96875 49.949219 C 147.910156 50.09375 147.847656 50.238281 147.785156 50.382812 Z M 147.785156 50.382812 " fill-opacity="1" fill-rule="evenodd"/><path fill="#000000" d="M 145.832031 54.851562 C 140.589844 57.808594 134.742188 59.949219 128.753906 61.886719 C 134.105469 59.074219 139.304688 56.066406 145.832031 54.851562 Z M 145.832031 54.851562 " fill-opacity="1" fill-rule="evenodd"/><path fill="#000000" d="M 136.609375 55.5 C 138.242188 54.992188 139.878906 54.488281 141.835938 53.882812 C 140.445312 55.664062 130.675781 60.03125 125.796875 60.945312 C 126.515625 60.554688 127.21875 60.152344 127.945312 59.769531 C 129.941406 58.730469 131.945312 57.695312 133.945312 56.660156 L 133.84375 56.722656 C 134.800781 56.289062 135.757812 55.855469 136.71875 55.421875 Z M 136.609375 55.5 " fill-opacity="1" fill-rule="evenodd"/><path fill="#000000" d="M 101.960938 -0.0859375 C 98.632812 2.640625 94.871094 4.328125 90.761719 6.152344 C 92.359375 3.933594 98.535156 0.464844 101.960938 -0.0859375 Z M 101.960938 -0.0859375 " fill-opacity="1" fill-rule="evenodd"/><path fill="#000000" d="M 133.945312 56.660156 C 132.066406 57.316406 130.171875 57.96875 128.296875 58.636719 C 127.011719 59.097656 125.75 59.597656 124.328125 59.855469 C 128.753906 57.589844 133.28125 55.484375 138.199219 53.902344 C 138.351562 54.046875 138.503906 54.183594 138.65625 54.324219 C 137.972656 54.714844 137.292969 55.109375 136.609375 55.5 L 136.71875 55.421875 C 135.757812 55.855469 134.800781 56.289062 133.84375 56.722656 Z M 133.945312 56.660156 " fill-opacity="1" fill-rule="evenodd"/><path fill="#000000" d="M 98.800781 -0.578125 C 95.710938 1.875 92.355469 3.324219 89.027344 4.796875 C 90.898438 2.566406 96.167969 -0.363281 98.800781 -0.578125 Z M 98.800781 -0.578125 " fill-opacity="1" fill-rule="evenodd"/><path fill="#000000" d="M 95.027344 5.941406 C 97.394531 3.757812 100.550781 2.226562 102.707031 2.175781 C 100.300781 3.597656 97.835938 4.957031 95.027344 5.941406 Z M 95.027344 5.941406 " fill-opacity="1" fill-rule="evenodd"/><path fill="#000000" d="M -18.042969 26.480469 C -15.984375 24.8125 -13.933594 23.144531 -11.871094 21.472656 C -11.976562 21.386719 -12.085938 21.300781 -12.1875 21.214844 C -15.398438 23.269531 -18.609375 25.324219 -21.820312 27.382812 C -20.578125 25.273438 -18.292969 23.863281 -16.21875 22.320312 C -14.15625 20.78125 -11.996094 19.316406 -9.789062 17.75 C -11.410156 17.046875 -12.375 17.640625 -13.457031 18.347656 C -18.027344 21.324219 -22.652344 24.253906 -27.269531 27.191406 C -27.644531 27.425781 -28.089844 27.609375 -28.507812 27.816406 C -28.632812 27.71875 -28.757812 27.621094 -28.886719 27.519531 C -27.257812 26.195312 -25.636719 24.875 -24.011719 23.554688 C -27.941406 25.425781 -31.1875 27.898438 -34.800781 30.054688 C -30.59375 25.574219 -25.257812 21.878906 -19.890625 18.210938 C -19.996094 18.097656 -20.105469 17.980469 -20.214844 17.867188 C -20.847656 18.15625 -21.554688 18.371094 -22.09375 18.730469 C -25.65625 21.109375 -29.179688 23.515625 -32.722656 25.914062 C -33.316406 26.3125 -33.925781 26.703125 -34.667969 27 C -32.148438 24.140625 -28.59375 21.953125 -25.855469 19.21875 C -29.792969 20.839844 -32.183594 23.792969 -36.230469 25.898438 C -34.761719 23.542969 -32.320312 22.183594 -30.175781 20.09375 C -31.457031 20.398438 -32.226562 20.519531 -32.914062 20.761719 C -37.398438 22.335938 -41.894531 23.894531 -46.320312 25.550781 C -47.78125 26.097656 -49.121094 26.867188 -50.402344 27.640625 C -52.152344 28.703125 -54.007812 29.761719 -53.765625 31.785156 C -55.480469 31.207031 -55.90625 30.605469 -55.207031 29.640625 C -54.742188 28.984375 -54.09375 28.363281 -53.359375 27.863281 C -52.078125 26.984375 -50.75 26.117188 -49.292969 25.414062 C -39.886719 20.882812 -29.691406 17.652344 -18.921875 15.40625 C -14.246094 14.433594 -9.472656 14.410156 -4.695312 14.746094 C -3.355469 14.839844 -1.964844 15.15625 -0.769531 15.617188 C 3.726562 17.351562 4.695312 21.628906 1.09375 24.289062 C -0.765625 25.65625 -3.042969 26.714844 -5.390625 28.066406 C -5.273438 25.867188 -3.972656 24.566406 -2.175781 23.472656 C -1.148438 22.851562 -0.609375 22.140625 -1.507812 21.015625 C -4.035156 22.640625 -6.527344 24.242188 -9.019531 25.84375 C -9.167969 25.742188 -9.316406 25.644531 -9.46875 25.542969 C -8.824219 24.78125 -8.183594 24.019531 -7.542969 23.257812 C -7.621094 23.195312 -7.703125 23.132812 -7.777344 23.066406 C -9.554688 24.164062 -11.324219 25.257812 -13.09375 26.355469 C -12.890625 25.074219 -11.726562 24.28125 -10.726562 23.429688 C -9.691406 22.554688 -8.492188 21.792969 -7.476562 20.910156 C -6.398438 19.980469 -5.445312 18.96875 -4.25 18.136719 C -4.886719 18.378906 -4.886719 18.378906 -7.394531 20.089844 C -8.546875 20.878906 -9.703125 21.664062 -10.859375 22.445312 C -11.953125 23.179688 -13.039062 23.917969 -14.152344 24.636719 C -15.289062 25.375 -16.460938 26.089844 -17.613281 26.8125 C -17.761719 26.699219 -17.902344 26.59375 -18.042969 26.480469 Z M -19.167969 20.367188 C -19.308594 20.269531 -19.449219 20.167969 -19.589844 20.066406 C -20.785156 20.96875 -22.226562 21.6875 -23.328125 22.652344 C -23.207031 22.742188 -23.082031 22.84375 -22.953125 22.933594 C -21.691406 22.078125 -20.433594 21.222656 -19.167969 20.367188 Z M -9.71875 19.128906 C -9.582031 19.203125 -9.441406 19.285156 -9.304688 19.359375 C -8.511719 18.871094 -7.71875 18.382812 -6.425781 17.578125 C -7.242188 17.835938 -7.476562 17.871094 -7.648438 17.964844 C -8.347656 18.34375 -9.03125 18.738281 -9.71875 19.128906 Z M -17.691406 18.90625 C -17.609375 18.976562 -17.519531 19.054688 -17.441406 19.132812 C -16.839844 18.746094 -16.246094 18.359375 -15.648438 17.976562 C -15.726562 17.910156 -15.804688 17.839844 -15.882812 17.769531 C -16.488281 18.148438 -17.089844 18.527344 -17.691406 18.90625 Z M -17.691406 18.90625 " fill-opacity="1" fill-rule="evenodd"/><path fill="#000000" d="M 70.078125 36.101562 C 72.066406 34.984375 74.050781 33.871094 76.058594 32.746094 C 75.1875 31.707031 74.324219 31.792969 73.332031 32.242188 C 71.449219 33.09375 69.542969 33.925781 67.636719 34.753906 C 66.875 35.085938 66.078125 35.378906 65.015625 35.367188 C 67.503906 34.140625 69.988281 32.90625 72.742188 31.539062 C 70.382812 30.75 68.609375 30.84375 66.78125 31.804688 C 65.109375 32.679688 63.253906 33.371094 61.480469 34.140625 C 61.367188 34.003906 61.257812 33.871094 61.144531 33.734375 C 62.894531 32.835938 64.652344 31.933594 66.402344 31.035156 C 66.3125 30.914062 66.222656 30.789062 66.128906 30.667969 C 62.789062 31.105469 60.085938 32.878906 56.707031 33.324219 C 58.699219 32.550781 60.691406 31.78125 62.855469 30.9375 C 61.6875 30.214844 60.796875 30.539062 59.816406 30.976562 C 57.539062 32.003906 55.222656 32.992188 52.898438 33.964844 C 52.125 34.289062 51.285156 34.519531 50.472656 34.792969 C 50.375 34.675781 50.277344 34.554688 50.175781 34.433594 C 52.566406 33.183594 54.957031 31.929688 57.347656 30.675781 C 53.347656 30.941406 50.566406 33.183594 46.292969 34.097656 C 48.320312 32.390625 50.796875 31.824219 52.351562 30.308594 C 48.414062 31.8125 44.480469 33.3125 40.539062 34.808594 C 40.433594 34.675781 40.324219 34.535156 40.214844 34.398438 C 42.835938 33.132812 45.460938 31.863281 48.082031 30.597656 C 48.003906 30.476562 47.925781 30.359375 47.84375 30.238281 C 43.46875 31.457031 39.691406 33.671875 34.917969 34.929688 C 35.390625 34.382812 35.652344 34.078125 36.128906 33.523438 C 34.292969 34.179688 32.773438 34.71875 31.257812 35.257812 C 31.164062 35.152344 31.074219 35.039062 30.980469 34.925781 C 33.941406 33.507812 36.902344 32.09375 40.058594 30.582031 C 38.359375 30.105469 37.246094 30.457031 36.140625 31.011719 C 34.230469 31.964844 32.289062 32.882812 30.347656 33.800781 C 29.851562 34.03125 29.304688 34.207031 28.53125 34.097656 C 30.660156 32.96875 32.785156 31.839844 34.914062 30.714844 C 32.921875 30.503906 31.605469 31.671875 29.375 32.078125 C 30.074219 31.417969 30.46875 31.042969 31.167969 30.386719 C 26.667969 30.480469 22.683594 30.726562 19.152344 32.65625 C 17.925781 31.671875 18.667969 30.871094 19.777344 30.507812 C 22.019531 29.773438 24.351562 28.9375 26.738281 28.730469 C 31.46875 28.328125 36.261719 28.253906 41.03125 28.167969 C 48.9375 28.023438 56.847656 27.890625 64.75 27.929688 C 67.847656 27.945312 70.972656 28.324219 74.023438 28.777344 C 75.582031 29.007812 77.101562 29.667969 78.464844 30.324219 C 79.8125 30.976562 80.238281 32.152344 79.648438 33.023438 C 79.023438 33.945312 78.128906 34.484375 76.53125 34.144531 C 75.976562 34.03125 75.175781 34.40625 74.558594 34.648438 C 73.140625 35.210938 71.753906 35.832031 70.363281 36.433594 C 70.265625 36.320312 70.171875 36.210938 70.078125 36.101562 Z M 70.078125 36.101562 " fill-opacity="1" fill-rule="evenodd"/><path fill="#000000" d="M 18.644531 34.863281 C 20.25 36.378906 22.570312 36.75 24.9375 36.945312 C 30.414062 37.394531 35.902344 37.765625 41.382812 38.171875 C 41.988281 38.214844 42.59375 38.242188 43.269531 38.523438 C 42.960938 38.621094 42.664062 38.785156 42.351562 38.804688 C 36.039062 39.230469 29.714844 39.820312 23.40625 38.9375 C 21.828125 38.71875 20.242188 38.199219 18.875 37.558594 C 17.335938 36.839844 17.371094 36.0625 18.644531 34.863281 Z M 18.644531 34.863281 " fill-opacity="1" fill-rule="evenodd"/><path fill="#000000" d="M 162.25 68.777344 C 161.992188 71.164062 161.78125 73.09375 161.574219 75.027344 C 160.472656 73.132812 160.210938 71.226562 160.730469 69.292969 C 160.765625 69.15625 161.296875 69.09375 162.25 68.777344 Z M 162.25 68.777344 " fill-opacity="1" fill-rule="evenodd"/><path fill="#000000" d="M 157.324219 76.980469 C 156.503906 75.460938 156.664062 72.230469 157.636719 70.628906 C 158.65625 71.785156 158.507812 74.878906 157.324219 76.980469 Z M 157.324219 76.980469 " fill-opacity="1" fill-rule="evenodd"/><path fill="#000000" d="M 400.386719 32.140625 C 401.082031 31.84375 401.777344 31.539062 402.480469 31.246094 C 404.886719 30.242188 407.351562 29.308594 409.683594 28.21875 C 411.304688 27.457031 412.828125 26.546875 414.25 25.585938 C 415.980469 24.417969 417.207031 23.140625 416.714844 21.128906 C 416.316406 19.476562 416.640625 17.730469 416.640625 15.851562 C 415.226562 16.609375 413.84375 17.347656 412.347656 18.152344 C 412.203125 20.820312 412.042969 23.53125 410.1875 26.074219 C 409.898438 25.273438 409.609375 24.46875 409.234375 23.4375 C 408.808594 24.90625 408.453125 26.128906 407.96875 27.808594 C 406.773438 26.207031 407.117188 24.941406 407.183594 23.714844 C 407.253906 22.425781 407.40625 21.140625 407.535156 19.714844 C 406.804688 19.828125 406.210938 19.914062 405.449219 20.027344 C 405.667969 23.03125 405.4375 25.9375 404.125 28.773438 C 402.984375 26.109375 403.667969 23.3125 403.289062 20.664062 C 401.6875 20.296875 401.558594 21.074219 401.394531 21.746094 C 400.925781 23.703125 400.519531 25.667969 400.042969 27.625 C 399.816406 28.558594 399.484375 29.472656 398.941406 30.375 C 397.875 27.324219 399.007812 24.273438 398.957031 21.226562 C 397.480469 20.992188 397.347656 21.546875 397.222656 22.316406 C 396.746094 25.242188 396.171875 28.15625 395.621094 31.074219 C 395.585938 31.269531 395.449219 31.449219 395.132812 31.652344 C 394.136719 28.4375 394.121094 25.140625 393.902344 21.675781 C 383.726562 22.902344 373.660156 22.804688 363.523438 22.125 C 362.636719 24.0625 363.066406 26.113281 361.457031 27.832031 C 361.457031 25.902344 361.457031 23.96875 361.457031 21.921875 C 360.65625 21.859375 360.0625 21.8125 359.328125 21.757812 C 358.878906 24.046875 359.105469 26.332031 357.78125 28.460938 C 356.59375 26.191406 357.316406 23.753906 356.988281 21.417969 C 356.800781 21.363281 356.617188 21.308594 356.425781 21.253906 C 356.117188 21.550781 355.59375 21.828125 355.539062 22.148438 C 355.375 23.164062 355.421875 24.203125 355.3125 25.230469 C 355.210938 26.171875 355.011719 27.109375 354.558594 28.0625 C 352.984375 25.828125 354.234375 23.296875 353.4375 21.003906 C 353.238281 20.996094 353.039062 20.992188 352.84375 20.984375 C 352.316406 23.671875 351.789062 26.355469 351.246094 29.125 C 354.644531 29.285156 358.035156 29.40625 361.414062 29.621094 C 368.386719 30.070312 375.285156 30.84375 382.023438 32.289062 C 383.515625 32.609375 384.957031 33.074219 386.40625 33.503906 C 389.601562 34.457031 391.0625 36.4375 391.230469 38.796875 C 391.460938 42.011719 391.304688 45.242188 391.207031 48.464844 C 391.144531 50.421875 389.9375 51.933594 387.859375 53.191406 C 382.785156 56.269531 376.828125 57.765625 370.597656 58.828125 C 369.792969 58.96875 368.976562 59.074219 368.164062 59.175781 C 368.003906 59.191406 367.820312 59.113281 367.214844 58.992188 C 369.710938 58.074219 371.941406 57.320312 374.085938 56.457031 C 378.199219 54.792969 382.273438 53.082031 386.351562 51.367188 C 387.996094 50.671875 388.789062 49.71875 388.566406 48.175781 C 388.355469 46.691406 388.667969 45.164062 388.730469 43.65625 C 388.753906 43.074219 388.738281 42.484375 388.738281 41.699219 C 386.46875 42.792969 384.503906 43.746094 382.59375 44.664062 C 382.191406 46.71875 381.796875 48.742188 381.402344 50.757812 C 379.714844 49.0625 381.058594 47.21875 380.5 45.5 C 379.363281 45.398438 379.109375 45.828125 379 46.558594 C 378.722656 48.394531 378.34375 50.222656 377.945312 52.046875 C 377.839844 52.550781 377.523438 53.035156 377.199219 53.75 C 375.691406 51.222656 377.039062 48.902344 376.886719 46.617188 C 375.390625 46.726562 375.425781 46.730469 375.28125 47.601562 C 374.902344 49.84375 374.511719 52.082031 374.074219 54.320312 C 373.980469 54.828125 373.679688 55.308594 373.296875 55.777344 C 372.421875 52.855469 373.285156 49.96875 373.421875 46.964844 C 372.761719 47.101562 372.246094 47.210938 371.695312 47.324219 C 371.800781 50.238281 371.183594 53.027344 369.996094 56 C 368.726562 54.511719 369.273438 53.105469 369.164062 51.78125 C 369.0625 50.492188 369.140625 49.199219 369.140625 47.613281 C 366.410156 48.285156 363.773438 48.28125 361.210938 49.210938 C 358.886719 50.058594 356.085938 50.203125 353.472656 50.570312 C 351.234375 50.878906 348.96875 51.066406 346.847656 51.292969 C 346.570312 54.0625 346.304688 56.648438 346.039062 59.324219 C 348.480469 59.324219 350.910156 59.28125 353.339844 59.335938 C 355.699219 59.386719 358.0625 59.539062 360.5 60.042969 C 359.976562 60.210938 359.472656 60.445312 358.929688 60.539062 C 348.683594 62.289062 338.394531 62.773438 328.03125 61.121094 C 325.789062 60.761719 323.519531 60.484375 321.28125 60.109375 C 314.578125 58.992188 313.828125 58.667969 309.265625 55.144531 C 306.304688 55.332031 303.304688 55.527344 299.855469 55.746094 C 303.023438 55.972656 305.742188 56.164062 308.46875 56.355469 C 308.476562 56.496094 308.488281 56.640625 308.5 56.785156 C 307.453125 56.90625 306.410156 57.117188 305.363281 57.144531 C 297 57.363281 288.640625 57.523438 280.277344 57.757812 C 275.777344 57.882812 271.285156 58.164062 266.789062 58.292969 C 258.824219 58.523438 251.011719 57.808594 243.386719 56.058594 C 240.152344 55.316406 237.84375 53.925781 236.539062 51.433594 C 234.546875 47.625 233.105469 43.699219 232.917969 39.667969 C 232.765625 36.34375 233.734375 33.105469 237.664062 30.691406 C 242.894531 27.476562 248.550781 24.824219 254.691406 22.777344 C 263.691406 19.773438 272.953125 17.304688 282.753906 16.230469 C 286.921875 15.777344 291.164062 15.476562 295.371094 15.496094 C 298.734375 15.511719 302.164062 15.910156 305.433594 16.523438 C 309.945312 17.363281 313.050781 19.539062 313.960938 23.070312 C 314.761719 26.160156 315.347656 29.285156 316.066406 32.566406 C 324.523438 29.925781 333.632812 29.847656 343.167969 29.230469 C 342.1875 28.851562 341.726562 28.675781 341.273438 28.488281 C 338.539062 27.351562 336.324219 26.015625 336.222656 23.339844 C 336.132812 20.878906 335.582031 18.433594 335.347656 15.972656 C 335.128906 13.710938 336.1875 11.777344 337.792969 9.816406 C 339.550781 7.675781 341.730469 6.0625 344.589844 4.863281 C 348.734375 3.132812 353.191406 2.054688 357.890625 1.695312 C 360.554688 1.492188 363.277344 1.660156 366.015625 1.953125 C 363.96875 2.242188 361.921875 2.515625 359.878906 2.820312 C 355.355469 3.5 350.933594 4.429688 346.945312 6.21875 C 345.460938 6.886719 343.992188 7.644531 342.769531 8.554688 C 339.472656 11 340.171875 14.289062 344.292969 15.882812 C 348.09375 17.351562 352.285156 17.894531 356.445312 18.449219 C 364.890625 19.578125 373.425781 19.972656 381.992188 19.699219 C 390.097656 19.4375 398.0625 18.421875 405.921875 16.949219 C 408.746094 16.421875 411.246094 15.433594 413.371094 13.953125 C 415.570312 12.40625 415.851562 10.703125 414.203125 8.78125 C 412.761719 7.101562 410.667969 5.964844 408.199219 5.3125 C 405.695312 4.652344 403.105469 4.171875 400.535156 3.660156 C 395.746094 2.703125 390.945312 1.78125 386.152344 0.828125 C 385.558594 0.710938 384.992188 0.503906 384.492188 0 C 389.074219 0.316406 393.675781 0.539062 398.242188 0.972656 C 401.601562 1.296875 404.980469 1.71875 408.222656 2.425781 C 410.375 2.898438 412.449219 3.789062 414.289062 4.769531 C 417.890625 6.691406 419.617188 9.480469 419.550781 12.746094 C 419.476562 16.238281 419.09375 19.726562 418.832031 23.214844 C 418.671875 25.285156 417.269531 26.828125 415.109375 28.042969 C 412.429688 29.542969 409.4375 30.566406 406.230469 31.253906 C 404.339844 31.664062 402.441406 32.058594 400.550781 32.460938 C 400.488281 32.355469 400.4375 32.246094 400.386719 32.140625 Z M 304.941406 45.5 C 304.441406 44.96875 303.769531 44.484375 303.488281 43.898438 C 302.8125 42.484375 302.335938 41.019531 301.75 39.582031 C 301.609375 39.234375 301.351562 38.917969 301.144531 38.585938 C 300.9375 38.613281 300.722656 38.644531 300.515625 38.675781 C 300.160156 40.011719 301.175781 41.265625 301.417969 42.554688 C 301.695312 44.003906 302.195312 45.421875 302.605469 46.871094 C 303.855469 46.652344 304.71875 46.34375 304.878906 45.449219 C 306.691406 45.398438 306.90625 45.234375 306.46875 44.238281 C 305.902344 42.945312 305.273438 41.664062 304.769531 40.359375 C 304.382812 39.359375 304.136719 38.335938 303.808594 37.261719 C 302.476562 37.746094 303.246094 38.261719 303.390625 38.71875 C 304.070312 40.957031 305.433594 43.109375 304.941406 45.5 Z M 254.46875 45.574219 C 266.789062 45.300781 278.433594 42.882812 289.753906 39.5 C 295.136719 37.886719 300.261719 35.867188 304.625 32.925781 C 306.824219 31.4375 308.699219 29.761719 309.707031 27.632812 C 311.78125 23.273438 308.976562 19.207031 303.042969 18.023438 C 301.089844 17.636719 299.097656 17.367188 297.109375 17.105469 C 295.78125 16.925781 294.417969 16.707031 293.085938 16.757812 C 279.300781 17.304688 266.363281 20.308594 253.980469 24.671875 C 246.460938 27.324219 239.460938 30.589844 234.695312 35.957031 C 233.914062 36.832031 233.796875 37.453125 234.371094 38.363281 C 236.820312 42.242188 240.71875 44.710938 246.492188 45.253906 C 249.125 45.503906 251.804688 45.476562 254.46875 45.574219 Z M 316.25 34 C 316.628906 37.207031 314.855469 39.714844 312.503906 42.074219 C 311.039062 43.546875 311.335938 44.875 313.453125 45.832031 C 314.460938 46.28125 315.601562 46.675781 316.75 46.828125 C 320.542969 47.335938 324.339844 47.933594 328.171875 48.101562 C 335.136719 48.410156 342.132812 48.332031 349.105469 48.601562 C 355.425781 48.851562 361.527344 48.261719 367.566406 46.867188 C 372.851562 45.640625 378.007812 44.222656 382.695312 42.011719 C 384.078125 41.359375 385.449219 40.597656 386.5 39.675781 C 388.285156 38.109375 387.710938 36.355469 385.257812 35.464844 C 383.859375 34.960938 382.382812 34.53125 380.882812 34.222656 C 374.042969 32.820312 367.058594 32.054688 359.996094 31.613281 C 351.910156 31.113281 343.828125 31.214844 335.757812 31.644531 C 329.261719 31.988281 322.757812 32.386719 316.25 34 Z M 297.433594 49.269531 C 296.226562 46.425781 295.152344 43.902344 294.042969 41.285156 C 283.601562 44.570312 273.015625 46.707031 261.957031 47.855469 C 262.378906 50.261719 262.777344 52.558594 263.175781 54.851562 C 262.96875 54.878906 262.761719 54.910156 262.554688 54.9375 C 262.210938 54.105469 261.8125 53.28125 261.539062 52.4375 C 261.109375 51.105469 260.820312 49.75 260.339844 48.425781 C 260.242188 48.15625 259.582031 48.003906 258.667969 47.53125 C 259.382812 50.734375 259.984375 53.402344 260.621094 56.234375 C 273.886719 56.789062 285.664062 53.296875 297.433594 49.269531 Z M 334.652344 59.179688 C 338.089844 59.785156 341.683594 59.714844 345.195312 59.601562 C 345.195312 56.757812 345.195312 54.175781 345.195312 51.445312 C 344.511719 51.480469 343.855469 51.507812 343.289062 51.535156 C 342.789062 53.886719 343.121094 56.167969 341.722656 58.488281 C 340.675781 57.199219 341.011719 56.015625 340.964844 54.890625 C 340.914062 53.761719 340.953125 52.628906 340.953125 51.5 C 340.75 51.433594 340.550781 51.367188 340.347656 51.300781 C 339.992188 51.574219 339.402344 51.816406 339.328125 52.128906 C 339.160156 52.792969 339.363281 53.503906 339.238281 54.179688 C 338.953125 55.667969 339.144531 57.25 337.691406 58.921875 C 336.726562 56.273438 336.988281 53.882812 336.871094 51.574219 C 335.589844 51.210938 335.28125 51.578125 335.230469 52.386719 C 335.09375 54.578125 334.863281 56.761719 334.652344 59.179688 Z M 310.15625 41.445312 C 311.894531 39.851562 313.035156 38.324219 313.886719 36.671875 C 314.039062 36.375 314.042969 35.980469 313.925781 35.675781 C 313.339844 34.125 312.6875 32.589844 312.003906 30.910156 C 310.574219 32.253906 309.222656 33.519531 307.992188 34.675781 C 308.71875 36.941406 309.390625 39.054688 310.15625 41.445312 Z M 346.085938 19.703125 C 345.496094 22.902344 344.925781 25.980469 344.347656 29.097656 C 346.445312 29.097656 348.316406 29.097656 350.128906 29.097656 C 350.285156 26.378906 350.464844 23.796875 350.554688 21.214844 C 350.566406 20.894531 350.121094 20.566406 349.886719 20.238281 C 349.722656 20.285156 349.5625 20.324219 349.398438 20.367188 C 348.796875 23.070312 348.191406 25.773438 347.582031 28.480469 C 347.339844 28.46875 347.089844 28.457031 346.839844 28.449219 C 346.820312 27.609375 346.707031 26.761719 346.796875 25.929688 C 346.976562 24.222656 347.25 22.527344 347.527344 20.832031 C 347.65625 20.085938 347.476562 19.597656 346.085938 19.703125 Z M 338.382812 15.835938 C 338.382812 16.8125 338.378906 17.609375 338.382812 18.40625 C 338.390625 20.171875 338.515625 21.941406 338.386719 23.703125 C 338.261719 25.355469 338.722656 25.921875 340.988281 26.464844 C 340.988281 24.292969 340.859375 22.046875 341.03125 19.816406 C 341.164062 18.167969 340.550781 16.90625 338.382812 15.835938 Z M 236.207031 44.375 C 237.285156 47.101562 238.136719 49.449219 239.15625 51.753906 C 239.535156 52.613281 240.578125 53.105469 242.066406 53.359375 C 241.5625 51.707031 240.828125 50.210938 240.710938 48.6875 C 240.558594 46.648438 239.175781 45.46875 236.207031 44.375 Z M 332.253906 51.238281 C 332.0625 51.292969 331.878906 51.34375 331.6875 51.398438 C 331.402344 53.804688 331.113281 56.207031 330.808594 58.765625 C 331.652344 58.859375 332.375 58.941406 333.140625 59.03125 C 333.140625 56.597656 333.175781 54.367188 333.105469 52.132812 C 333.09375 51.832031 332.550781 51.535156 332.253906 51.238281 Z M 255.089844 48.203125 C 255.621094 50.800781 256.128906 53.285156 256.664062 55.882812 C 257.5625 55.882812 258.378906 55.882812 259.160156 55.882812 C 258.339844 53.496094 257.566406 51.25 256.796875 49 C 256.589844 48.390625 256.464844 47.714844 255.089844 48.203125 Z M 308.339844 54.234375 C 308.335938 53.117188 307.515625 53.09375 306.476562 53.144531 C 302.714844 53.332031 298.953125 53.46875 295.191406 53.632812 C 293.386719 53.710938 291.585938 53.8125 289.785156 53.902344 C 289.792969 54.015625 289.800781 54.128906 289.804688 54.234375 C 295.933594 54.234375 302.0625 54.234375 308.339844 54.234375 Z M 327.292969 51.167969 C 327.292969 53.515625 327.292969 55.867188 327.292969 58.359375 C 327.675781 58.378906 328.191406 58.40625 328.8125 58.4375 C 328.96875 56.257812 329.113281 54.167969 329.28125 52.082031 C 329.347656 51.269531 328.890625 50.945312 327.292969 51.167969 Z M 299.042969 48.445312 C 300.328125 48.15625 301.058594 47.832031 300.582031 46.800781 C 299.542969 44.570312 298.609375 42.316406 297.46875 39.667969 C 297.023438 40.296875 296.507812 40.683594 296.59375 40.972656 C 297.328125 43.421875 298.175781 45.855469 299.042969 48.445312 Z M 306.644531 35.597656 C 306.199219 35.800781 305.902344 35.894531 305.914062 35.945312 C 306.449219 38.265625 307.015625 40.585938 307.59375 42.992188 C 308.222656 42.742188 308.84375 42.492188 309.476562 42.242188 C 308.523438 40.015625 307.617188 37.882812 306.644531 35.597656 Z M 321.644531 50.71875 C 321.457031 50.699219 321.261719 50.679688 321.074219 50.660156 C 320.898438 52.683594 320.664062 54.707031 320.578125 56.734375 C 320.53125 57.8125 321.507812 57.617188 322.472656 57.460938 C 322.183594 55.132812 321.917969 52.925781 321.644531 50.71875 Z M 307.734375 52.109375 C 307.730469 51.902344 307.730469 51.691406 307.726562 51.484375 C 303.5625 51.257812 299.425781 51.953125 295.273438 52.109375 C 299.425781 52.109375 303.578125 52.109375 307.734375 52.109375 Z M 250.066406 48.054688 C 249.875 48.085938 249.683594 48.113281 249.492188 48.144531 C 250.144531 50.492188 250.785156 52.851562 251.480469 55.195312 C 251.519531 55.335938 252.03125 55.394531 252.703125 55.617188 C 251.757812 52.90625 250.910156 50.484375 250.066406 48.054688 Z M 244.863281 47.726562 C 244.71875 51.183594 245.707031 53.929688 247.175781 54.652344 C 246.5 52.496094 245.863281 50.472656 245.21875 48.453125 C 245.140625 48.203125 244.984375 47.96875 244.863281 47.726562 Z M 313.210938 48.542969 C 312.195312 50.726562 312.171875 53.9375 313.210938 55.074219 C 313.210938 52.867188 313.210938 50.847656 313.210938 48.542969 Z M 324.535156 57.921875 C 325.1875 56.609375 325.164062 52.3125 324.5 51.113281 C 323.796875 54.726562 323.808594 56.980469 324.535156 57.921875 Z M 318.609375 57.042969 C 318.421875 55.265625 318.269531 53.800781 318.085938 52.03125 C 317.605469 53.75 317.199219 55.175781 316.78125 56.664062 C 317.375 56.785156 317.871094 56.890625 318.609375 57.042969 Z M 315.828125 56.375 C 315.660156 54.320312 315.519531 52.570312 315.339844 50.34375 C 315.136719 51.773438 314.996094 52.722656 314.882812 53.671875 C 314.773438 54.570312 313.695312 55.632812 315.828125 56.375 Z M 248.09375 49.425781 C 247.957031 49.445312 247.8125 49.464844 247.675781 49.484375 C 247.890625 50.46875 247.980469 51.488281 248.367188 52.433594 C 248.726562 53.3125 248.175781 54.457031 249.976562 54.976562 C 249.347656 53.125 248.722656 51.277344 248.09375 49.425781 Z M 302.375 48.941406 C 302.386719 48.960938 302.394531 48.980469 302.40625 49 C 304.042969 49 305.683594 49 307.320312 49 C 307.300781 48.847656 307.28125 48.699219 307.257812 48.550781 C 305.632812 48.679688 304 48.808594 302.375 48.941406 Z M 343.105469 27.722656 C 343.105469 26.695312 343.105469 25.671875 343.105469 24.648438 C 343.039062 25.671875 341.941406 26.675781 343.105469 27.722656 Z M 304.6875 47.164062 C 305.886719 47.207031 306.46875 47.230469 307.023438 47.246094 C 307.054688 46.722656 307.085938 46.304688 307.121094 45.714844 C 306.410156 46.140625 305.828125 46.488281 304.6875 47.164062 Z M 254.152344 53.175781 C 254.039062 53.203125 253.921875 53.222656 253.808594 53.246094 C 254.050781 54.03125 254.285156 54.816406 254.527344 55.601562 C 254.730469 55.558594 254.933594 55.519531 255.128906 55.476562 C 254.808594 54.710938 254.480469 53.945312 254.152344 53.175781 Z M 343.925781 18.953125 C 343.671875 18.949219 343.417969 18.945312 343.15625 18.941406 C 343.207031 19.722656 343.253906 20.496094 343.308594 21.273438 C 343.402344 21.273438 343.496094 21.273438 343.589844 21.273438 C 343.703125 20.5 343.8125 19.726562 343.925781 18.953125 Z M 252.882812 49.566406 C 252.964844 49.550781 253.042969 49.535156 253.121094 49.515625 C 252.957031 49.070312 252.792969 48.625 252.628906 48.179688 C 252.5 48.210938 252.371094 48.242188 252.242188 48.269531 C 252.453125 48.703125 252.667969 49.132812 252.882812 49.566406 Z M 252.882812 49.566406 " fill-opacity="1" fill-rule="evenodd"/><path fill="#000000" d="M 419.179688 52.671875 C 416.8125 52.78125 414.445312 52.941406 412.078125 52.992188 C 403.324219 53.179688 395.011719 54.78125 386.957031 57.242188 C 384.386719 58.027344 382 59.042969 380.070312 60.574219 C 378.394531 61.898438 377.214844 63.402344 376.742188 65.222656 C 376.230469 67.183594 376.808594 68.921875 378.570312 70.382812 C 379.546875 71.1875 380.695312 71.90625 381.890625 72.527344 C 388.4375 75.921875 395.773438 77.769531 403.613281 78.601562 C 414.320312 79.738281 425.0625 79.777344 435.796875 78.949219 C 441.855469 78.480469 447.714844 77.359375 453.117188 75.121094 C 456.230469 73.832031 458.398438 71.972656 459.78125 69.558594 C 461.570312 66.445312 460.964844 64.199219 457.519531 62.015625 C 455.285156 60.59375 452.890625 59.308594 450.570312 57.957031 C 449.867188 57.546875 449.175781 57.125 448.625 56.558594 C 455.46875 57.660156 461.546875 59.566406 464.476562 64.824219 C 464.824219 65.449219 465.050781 66.140625 465.125 66.816406 C 465.667969 71.636719 465.207031 76.332031 463.386719 81.054688 C 462.414062 83.578125 460.5 85.214844 458.042969 86.738281 C 451.761719 90.640625 444.363281 92.625 436.386719 93.324219 C 423.140625 94.480469 409.953125 94.199219 396.960938 91.75 C 390.109375 90.460938 383.800781 88.300781 378.40625 84.800781 C 374.984375 82.574219 372.894531 79.96875 373.171875 76.394531 C 373.429688 73.042969 373.28125 69.679688 373.355469 66.324219 C 373.390625 64.679688 373.886719 63.234375 375.292969 61.789062 C 377.511719 59.503906 380 57.546875 383.425781 56.394531 C 393.882812 52.871094 404.777344 50.945312 416.339844 51.71875 C 417.292969 51.78125 418.230469 51.941406 419.175781 52.058594 C 419.175781 52.265625 419.179688 52.46875 419.179688 52.671875 Z M 402.960938 89.417969 C 402.3125 86.429688 403.097656 83.972656 403.53125 81.386719 C 402.714844 81.3125 402.039062 81.25 401.363281 81.183594 C 400.917969 84.03125 400.492188 86.734375 400.046875 89.601562 C 411.863281 91.371094 423.566406 91.695312 435.339844 90.636719 C 435.53125 87.601562 435.703125 84.824219 435.878906 82.050781 C 426.984375 82.050781 418.316406 82.050781 409.570312 82.050781 C 409.332031 83.289062 409.144531 84.503906 408.859375 85.707031 C 408.59375 86.828125 408.757812 88.0625 407.109375 88.902344 C 407.433594 86.617188 407.761719 84.332031 408.121094 81.847656 C 407.273438 81.753906 406.25 81.640625 405.160156 81.519531 C 404.554688 84.140625 404.699219 86.6875 402.960938 89.417969 Z M 452.867188 86.820312 C 456.578125 85.804688 459.042969 83.960938 461.53125 82.164062 C 461.890625 81.90625 461.882812 81.292969 461.886719 80.84375 C 461.925781 79.195312 461.894531 77.550781 461.890625 75.902344 C 461.886719 74.839844 461.890625 73.777344 461.890625 72.492188 C 460.320312 73.699219 459.082031 74.773438 457.667969 75.699219 C 456.4375 76.507812 454.464844 76.9375 453.816406 77.90625 C 453.105469 78.964844 453.59375 80.449219 453.472656 81.742188 C 453.324219 83.367188 453.089844 84.984375 452.867188 86.820312 Z M 443.621094 80.851562 C 443.375 80.816406 443.128906 80.785156 442.882812 80.757812 C 442.785156 81.222656 442.613281 81.6875 442.597656 82.15625 C 442.535156 84.003906 442.53125 85.851562 442.484375 87.699219 C 442.464844 88.375 442.421875 89.0625 441.335938 89.371094 C 441.070312 89.195312 440.714844 89.070312 440.703125 88.933594 C 440.488281 86.4375 440.316406 83.933594 440.125 81.304688 C 439.515625 81.421875 438.878906 81.542969 438.289062 81.65625 C 437.964844 84.652344 437.65625 87.480469 437.328125 90.515625 C 439.546875 90.171875 441.476562 89.875 443.144531 89.617188 C 443.3125 86.527344 443.46875 83.6875 443.621094 80.851562 Z M 398.945312 89.410156 C 398.945312 86.375 398.945312 83.605469 398.945312 80.726562 C 398.167969 80.671875 397.394531 80.609375 396.5 80.546875 C 396.125 83.367188 395.773438 86.039062 395.414062 88.757812 C 396.625 88.984375 397.578125 89.160156 398.945312 89.410156 Z M 375.914062 72.3125 C 374.503906 75.6875 374.441406 79.59375 378.660156 81.628906 C 378.660156 79.792969 378.375 78.078125 378.734375 76.441406 C 379.175781 74.414062 378.035156 73.242188 375.914062 72.3125 Z M 393.578125 88.269531 C 393.578125 85.265625 393.578125 82.628906 393.578125 79.894531 C 393.136719 79.75 392.664062 79.558594 392.15625 79.445312 C 391.921875 79.390625 391.636719 79.476562 391.34375 79.503906 C 391.082031 82.164062 390.828125 84.796875 390.5625 87.496094 C 391.558594 87.753906 392.390625 87.964844 393.578125 88.269531 Z M 449.175781 88.046875 C 450.457031 87.925781 451.351562 87.78125 451.417969 86.785156 C 451.609375 84.0625 451.8125 81.339844 452.015625 78.519531 C 450.613281 78.660156 449.789062 78.972656 449.855469 80.183594 C 449.941406 81.757812 449.808594 83.335938 449.679688 84.910156 C 449.601562 85.914062 449.367188 86.914062 449.175781 88.046875 Z M 447.8125 79.859375 C 446.0625 80.257812 446.066406 80.257812 446.03125 81.191406 C 445.976562 82.492188 445.988281 83.796875 445.847656 85.089844 C 445.703125 86.371094 445.40625 87.636719 445.140625 89.097656 C 446.042969 88.941406 446.707031 88.824219 447.28125 88.722656 C 447.457031 85.75 447.628906 82.894531 447.8125 79.859375 Z M 382.84375 84.542969 C 383.671875 84.886719 384.355469 85.171875 385.429688 85.617188 C 385.429688 83.933594 385.492188 82.507812 385.417969 81.09375 C 385.34375 79.785156 386.40625 78.390625 384.695312 77.136719 C 384.097656 79.527344 383.496094 81.921875 382.84375 84.542969 Z M 388.34375 86.652344 C 388.667969 84.183594 388.921875 81.894531 389.300781 79.617188 C 389.441406 78.777344 389.21875 78.355469 387.964844 78.378906 C 387.5625 80.652344 387.207031 82.875 386.761719 85.082031 C 386.558594 86.109375 387.03125 86.625 388.34375 86.652344 Z M 380.773438 75.433594 C 380.453125 77.671875 380.117188 79.90625 379.808594 82.140625 C 379.707031 82.875 380.1875 83.289062 381.234375 83.375 C 381.617188 81.261719 381.984375 79.164062 382.394531 77.070312 C 382.570312 76.179688 382.265625 75.585938 380.773438 75.433594 Z M 380.773438 75.433594 " fill-opacity="1" fill-rule="evenodd"/><path fill="#000000" d="M 404.71875 7.144531 C 406.007812 7.828125 406.996094 8.191406 407.71875 8.753906 C 409.539062 10.171875 408.980469 12.296875 406.320312 13.128906 C 403.207031 14.101562 399.945312 14.859375 396.683594 15.53125 C 386.253906 17.691406 375.597656 17.511719 364.929688 17.03125 C 360.238281 16.820312 355.59375 16.367188 351.152344 15.148438 C 349.871094 14.796875 348.566406 14.398438 347.445312 13.824219 C 345.503906 12.824219 345.296875 11.0625 346.773438 9.6875 C 348.03125 8.519531 349.65625 7.886719 352.71875 7.515625 C 351.8125 8.09375 351.238281 8.460938 350.667969 8.824219 C 350.175781 9.132812 349.640625 9.410156 349.191406 9.75 C 347.285156 11.175781 347.441406 12.140625 349.996094 12.726562 C 353.054688 13.429688 356.207031 14.160156 359.363281 14.296875 C 366.964844 14.636719 374.609375 14.835938 382.222656 14.722656 C 389.132812 14.621094 395.867188 13.40625 402.417969 11.757812 C 405.542969 10.972656 405.503906 10.878906 404.984375 8.53125 C 404.914062 8.210938 404.863281 7.890625 404.71875 7.144531 Z M 404.71875 7.144531 " fill-opacity="1" fill-rule="evenodd"/><path fill="#000000" d="M 379.386719 7.320312 C 377.109375 8.253906 374.835938 9.1875 372.558594 10.121094 C 372.460938 10.046875 372.363281 9.976562 372.269531 9.902344 C 372.554688 9.640625 372.8125 9.347656 373.144531 9.117188 C 373.46875 8.886719 373.878906 8.726562 374.25 8.535156 C 374.125 8.410156 373.996094 8.285156 373.871094 8.164062 C 372.144531 8.972656 370.421875 9.777344 368.695312 10.589844 C 369.285156 9.25 370.824219 8.699219 372.132812 7.976562 C 373.488281 7.230469 374.898438 6.53125 376.003906 5.480469 C 373.0625 6.757812 370.128906 8.035156 367.191406 9.308594 C 367.074219 9.195312 366.960938 9.078125 366.84375 8.964844 C 367.917969 7.75 369.796875 7.105469 371.453125 5.726562 C 369.398438 5.726562 367.753906 5.726562 366.074219 5.726562 C 366.058594 4.613281 366.914062 4.441406 367.714844 4.398438 C 370.816406 4.230469 373.945312 3.882812 377.023438 4.042969 C 381.867188 4.289062 386.675781 4.894531 391.496094 5.339844 C 392.359375 5.417969 393.21875 5.480469 394.738281 5.597656 C 391.191406 8.0625 387.5625 9.601562 383.953125 11.15625 C 383.800781 11.003906 383.648438 10.851562 383.488281 10.695312 C 386.109375 9.179688 388.726562 7.667969 391.371094 6.136719 C 389.765625 5.632812 389.777344 5.640625 388.882812 6.398438 C 388.519531 6.703125 388.148438 7.03125 387.699219 7.253906 C 384.261719 8.921875 380.804688 10.570312 377.1875 12.050781 C 378.15625 10.398438 380.21875 9.65625 381.988281 8.703125 C 383.835938 7.707031 385.804688 6.835938 387.84375 5.851562 C 386.644531 5.386719 385.796875 5.773438 384.886719 6.25 C 382.40625 7.554688 379.886719 8.816406 377.371094 10.078125 C 376.875 10.328125 376.308594 10.492188 375.503906 10.429688 C 376.871094 9.480469 378.238281 8.535156 379.601562 7.585938 C 379.53125 7.5 379.457031 7.410156 379.386719 7.320312 Z M 379.386719 7.320312 " fill-opacity="1" fill-rule="evenodd"/><path fill="#000000" d="M 280.6875 33.148438 C 282.742188 31.480469 284.792969 29.8125 286.855469 28.140625 C 286.75 28.054688 286.640625 27.96875 286.539062 27.882812 C 283.328125 29.9375 280.117188 31.992188 276.90625 34.050781 C 278.148438 31.941406 280.4375 30.53125 282.507812 28.988281 C 284.570312 27.449219 286.730469 25.984375 288.941406 24.417969 C 287.320312 23.714844 286.351562 24.308594 285.269531 25.015625 C 280.699219 27.992188 276.074219 30.921875 271.457031 33.859375 C 271.082031 34.097656 270.636719 34.277344 270.21875 34.484375 C 270.09375 34.386719 269.96875 34.289062 269.839844 34.1875 C 271.46875 32.867188 273.089844 31.546875 274.714844 30.222656 C 270.789062 32.09375 267.542969 34.566406 263.929688 36.722656 C 268.132812 32.242188 273.46875 28.546875 278.835938 24.878906 C 278.730469 24.765625 278.621094 24.648438 278.511719 24.535156 C 277.878906 24.824219 277.171875 25.039062 276.632812 25.398438 C 273.070312 27.777344 269.546875 30.183594 266.007812 32.582031 C 265.410156 32.984375 264.800781 33.371094 264.058594 33.667969 C 266.578125 30.808594 270.132812 28.621094 272.875 25.886719 C 268.9375 27.507812 266.546875 30.460938 262.496094 32.566406 C 263.964844 30.210938 266.40625 28.851562 268.554688 26.761719 C 267.269531 27.066406 266.5 27.1875 265.8125 27.429688 C 261.328125 29.003906 256.835938 30.5625 252.410156 32.21875 C 250.949219 32.765625 249.605469 33.535156 248.328125 34.308594 C 246.574219 35.371094 244.71875 36.433594 244.960938 38.453125 C 243.246094 37.878906 242.820312 37.273438 243.519531 36.308594 C 243.988281 35.65625 244.632812 35.03125 245.367188 34.53125 C 246.648438 33.652344 247.976562 32.785156 249.433594 32.082031 C 258.839844 27.550781 269.039062 24.320312 279.804688 22.078125 C 284.480469 21.101562 289.257812 21.078125 294.035156 21.417969 C 295.371094 21.507812 296.761719 21.824219 297.957031 22.285156 C 302.457031 24.019531 303.421875 28.296875 299.820312 30.957031 C 297.960938 32.324219 295.683594 33.382812 293.335938 34.734375 C 293.453125 32.535156 294.753906 31.234375 296.550781 30.144531 C 297.578125 29.519531 298.117188 28.808594 297.21875 27.683594 C 294.691406 29.308594 292.203125 30.910156 289.710938 32.511719 C 289.5625 32.410156 289.414062 32.3125 289.261719 32.210938 C 289.902344 31.449219 290.542969 30.6875 291.1875 29.925781 C 291.109375 29.863281 291.027344 29.800781 290.949219 29.734375 C 289.175781 30.832031 287.40625 31.925781 285.632812 33.027344 C 285.839844 31.746094 287 30.949219 288.003906 30.097656 C 289.039062 29.226562 290.234375 28.460938 291.253906 27.578125 C 292.332031 26.648438 293.285156 25.636719 294.476562 24.804688 C 293.839844 25.046875 293.839844 25.046875 291.335938 26.757812 C 290.183594 27.546875 289.027344 28.332031 287.871094 29.113281 C 286.777344 29.847656 285.6875 30.585938 284.574219 31.304688 C 283.4375 32.042969 282.265625 32.757812 281.113281 33.480469 C 280.96875 33.367188 280.828125 33.261719 280.6875 33.148438 Z M 279.558594 27.035156 C 279.417969 26.9375 279.277344 26.835938 279.140625 26.738281 C 277.941406 27.636719 276.503906 28.355469 275.398438 29.320312 C 275.523438 29.414062 275.648438 29.511719 275.773438 29.605469 C 277.035156 28.746094 278.292969 27.894531 279.558594 27.035156 Z M 289.007812 25.796875 C 289.144531 25.875 289.285156 25.953125 289.421875 26.03125 C 290.214844 25.539062 291.007812 25.050781 292.300781 24.25 C 291.484375 24.503906 291.253906 24.539062 291.078125 24.632812 C 290.378906 25.011719 289.695312 25.40625 289.007812 25.796875 Z M 281.035156 25.574219 C 281.117188 25.648438 281.207031 25.722656 281.289062 25.800781 C 281.886719 25.414062 282.480469 25.03125 283.082031 24.644531 C 283.003906 24.578125 282.925781 24.507812 282.847656 24.441406 C 282.242188 24.816406 281.636719 25.195312 281.035156 25.574219 Z M 281.035156 25.574219 " fill-opacity="1" fill-rule="evenodd"/><path fill="#000000" d="M 249.578125 40.441406 C 249.996094 40.40625 250.582031 40.222656 250.996094 40.351562 C 254.765625 41.539062 258.5625 40.980469 262.363281 40.511719 C 266.0625 40.050781 269.753906 39.5625 273.457031 39.105469 C 273.980469 39.042969 274.53125 39.097656 275.183594 39.441406 C 271.261719 40.265625 267.355469 41.140625 263.410156 41.890625 C 261.46875 42.261719 259.457031 42.476562 257.460938 42.648438 C 255.054688 42.859375 252.710938 42.578125 250.496094 41.804688 C 249.820312 41.566406 249.144531 41.292969 249.578125 40.441406 Z M 249.578125 40.441406 " fill-opacity="1" fill-rule="evenodd"/><path fill="#000000" d="M 368.808594 42.769531 C 370.792969 41.652344 372.777344 40.539062 374.785156 39.414062 C 373.917969 38.375 373.054688 38.460938 372.0625 38.910156 C 370.175781 39.761719 368.273438 40.597656 366.363281 41.421875 C 365.601562 41.753906 364.804688 42.046875 363.742188 42.035156 C 366.230469 40.808594 368.714844 39.574219 371.46875 38.207031 C 369.109375 37.417969 367.339844 37.515625 365.507812 38.472656 C 363.835938 39.347656 361.980469 40.039062 360.207031 40.808594 C 360.097656 40.671875 359.984375 40.539062 359.875 40.402344 C 361.625 39.503906 363.378906 38.601562 365.128906 37.703125 C 365.042969 37.582031 364.953125 37.457031 364.859375 37.335938 C 361.515625 37.773438 358.8125 39.546875 355.4375 39.992188 C 357.425781 39.21875 359.417969 38.449219 361.582031 37.605469 C 360.414062 36.882812 359.523438 37.207031 358.546875 37.644531 C 356.265625 38.671875 353.949219 39.660156 351.625 40.632812 C 350.851562 40.957031 350.011719 41.1875 349.199219 41.460938 C 349.105469 41.34375 349.003906 41.222656 348.902344 41.101562 C 351.292969 39.851562 353.6875 38.597656 356.078125 37.34375 C 352.074219 37.609375 349.292969 39.851562 345.023438 40.765625 C 347.046875 39.058594 349.523438 38.492188 351.078125 36.980469 C 347.140625 38.480469 343.207031 39.980469 339.265625 41.480469 C 339.160156 41.34375 339.050781 41.203125 338.941406 41.066406 C 341.5625 39.800781 344.191406 38.53125 346.8125 37.265625 C 346.730469 37.144531 346.65625 37.027344 346.574219 36.910156 C 342.195312 38.125 338.417969 40.339844 333.644531 41.597656 C 334.117188 41.054688 334.378906 40.746094 334.855469 40.191406 C 333.019531 40.847656 331.503906 41.386719 329.984375 41.925781 C 329.894531 41.820312 329.804688 41.707031 329.707031 41.59375 C 332.671875 40.175781 335.628906 38.761719 338.789062 37.25 C 337.085938 36.773438 335.976562 37.125 334.867188 37.679688 C 332.960938 38.632812 331.015625 39.550781 329.074219 40.46875 C 328.578125 40.699219 328.03125 40.875 327.261719 40.765625 C 329.386719 39.636719 331.515625 38.507812 333.640625 37.382812 C 331.652344 37.171875 330.332031 38.339844 328.105469 38.746094 C 328.804688 38.085938 329.199219 37.714844 329.898438 37.054688 C 325.398438 37.148438 321.410156 37.394531 317.878906 39.324219 C 316.652344 38.339844 317.394531 37.539062 318.503906 37.175781 C 320.75 36.441406 323.078125 35.605469 325.464844 35.398438 C 330.195312 34.996094 334.992188 34.921875 339.761719 34.835938 C 347.667969 34.691406 355.574219 34.558594 363.480469 34.597656 C 366.578125 34.613281 369.699219 34.996094 372.753906 35.445312 C 374.308594 35.675781 375.828125 36.335938 377.191406 36.992188 C 378.542969 37.644531 378.964844 38.820312 378.378906 39.691406 C 377.75 40.613281 376.855469 41.152344 375.257812 40.8125 C 374.703125 40.699219 373.90625 41.074219 373.289062 41.316406 C 371.867188 41.878906 370.484375 42.5 369.089844 43.101562 C 368.992188 42.988281 368.898438 42.878906 368.808594 42.769531 Z M 368.808594 42.769531 " fill-opacity="1" fill-rule="evenodd"/><path fill="#000000" d="M 317.375 41.53125 C 318.976562 43.046875 321.300781 43.421875 323.664062 43.613281 C 329.140625 44.0625 334.628906 44.433594 340.109375 44.839844 C 340.71875 44.882812 341.320312 44.910156 341.996094 45.191406 C 341.691406 45.289062 341.394531 45.453125 341.082031 45.476562 C 334.769531 45.898438 328.441406 46.488281 322.132812 45.605469 C 320.554688 45.386719 318.96875 44.867188 317.605469 44.230469 C 316.066406 43.507812 316.097656 42.730469 317.375 41.53125 Z M 317.375 41.53125 " fill-opacity="1" fill-rule="evenodd"/></svg>