<svg xmlns="http://www.w3.org/2000/svg" xmlns:xlink="http://www.w3.org/1999/xlink" width="500" zoomAndPan="magnify" viewBox="0 0 375 374.999991" height="500" preserveAspectRatio="xMidYMid meet" version="1.0"><defs><clipPath id="4d700779dd"><path d="M 2.707031 0 L 50.640625 0 L 50.640625 58.917969 L 2.707031 58.917969 Z M 2.707031 0 " clip-rule="nonzero"/></clipPath><clipPath id="9ffe186d6b"><path d="M 192 301 L 259 301 L 259 337.160156 L 192 337.160156 Z M 192 301 " clip-rule="nonzero"/></clipPath><clipPath id="40f0ec0e25"><path d="M 116 301 L 183 301 L 183 337.160156 L 116 337.160156 Z M 116 301 " clip-rule="nonzero"/></clipPath></defs><rect x="-37.5" width="450" fill="#ffffff" y="-37.499999" height="449.999989" fill-opacity="1"/><rect x="-37.5" width="450" fill="#304b29" y="-37.499999" height="449.999989" fill-opacity="1"/><g clip-path="url(#4d700779dd)"><path fill="#304b29" d="M 2.707031 0 L 50.640625 0 L 50.640625 58.980469 L 2.707031 58.980469 Z M 2.707031 0 " fill-opacity="1" fill-rule="nonzero"/></g><path fill="#e44096" d="M 147.664062 125.75 L 106.539062 185.980469 L 141.683594 176.523438 L 155.199219 231.910156 L 186.289062 146.804688 L 147.664062 125.75 " fill-opacity="1" fill-rule="nonzero"/><path fill="#e44096" d="M 227.195312 125.75 L 268.320312 185.980469 L 233.175781 176.523438 L 219.65625 231.910156 L 188.566406 146.804688 L 227.195312 125.75 " fill-opacity="1" fill-rule="nonzero"/><path fill="#fcc257" d="M 248.246094 107.230469 C 239.523438 111.507812 237.960938 116.71875 243.121094 124.601562 C 246.597656 129.921875 242.402344 137.035156 236.054688 136.589844 C 226.917969 135.945312 223.246094 139.613281 223.894531 148.746094 C 224.339844 155.085938 217.21875 159.28125 211.898438 155.800781 C 204.007812 150.648438 198.792969 152.210938 194.515625 160.925781 C 191.597656 166.871094 183.257812 166.871094 180.34375 160.925781 C 176.066406 152.210938 170.847656 150.648438 162.960938 155.800781 C 157.636719 159.28125 150.515625 155.085938 150.964844 148.746094 C 151.613281 139.613281 147.9375 135.945312 138.800781 136.589844 C 132.457031 137.035156 128.257812 129.921875 131.738281 124.601562 C 136.898438 116.71875 135.332031 111.507812 126.609375 107.230469 C 120.664062 104.316406 120.664062 95.984375 126.609375 93.070312 C 135.332031 88.792969 136.898438 83.582031 131.738281 75.699219 C 128.257812 70.378906 132.457031 63.261719 138.800781 63.710938 C 147.9375 64.355469 151.613281 60.6875 150.964844 51.554688 C 150.515625 45.214844 157.636719 41.019531 162.960938 44.496094 C 170.847656 49.652344 176.066406 48.089844 180.34375 39.375 C 183.257812 33.429688 191.597656 33.429688 194.515625 39.375 C 198.792969 48.089844 204.007812 49.652344 211.898438 44.496094 C 217.21875 41.019531 224.339844 45.214844 223.894531 51.554688 C 223.246094 60.6875 226.917969 64.355469 236.054688 63.710938 C 242.402344 63.261719 246.597656 70.378906 243.121094 75.699219 C 237.960938 83.582031 239.523438 88.792969 248.246094 93.070312 C 254.191406 95.984375 254.191406 104.316406 248.246094 107.230469 " fill-opacity="1" fill-rule="nonzero"/><path fill="#feb336" d="M 239.152344 106.171875 C 231.738281 109.808594 230.40625 114.242188 234.792969 120.945312 C 237.753906 125.472656 234.183594 131.523438 228.785156 131.140625 C 221.015625 130.59375 217.890625 133.714844 218.441406 141.480469 C 218.824219 146.871094 212.769531 150.441406 208.238281 147.480469 C 201.53125 143.097656 197.09375 144.425781 193.457031 151.839844 C 190.976562 156.894531 183.882812 156.894531 181.402344 151.839844 C 177.765625 144.425781 173.328125 143.097656 166.617188 147.480469 C 162.089844 150.441406 156.035156 146.871094 156.417969 141.480469 C 156.964844 133.714844 153.84375 130.59375 146.074219 131.140625 C 140.675781 131.523438 137.105469 125.472656 140.066406 120.945312 C 144.453125 114.242188 143.121094 109.808594 135.703125 106.171875 C 130.644531 103.695312 130.644531 96.605469 135.703125 94.128906 C 143.121094 90.492188 144.453125 86.058594 140.066406 79.351562 C 137.105469 74.828125 140.675781 68.777344 146.074219 69.15625 C 153.84375 69.707031 156.964844 66.585938 156.417969 58.820312 C 156.035156 53.429688 162.089844 49.859375 166.617188 52.816406 C 173.328125 57.203125 177.765625 55.871094 181.402344 48.457031 C 183.882812 43.40625 190.976562 43.40625 193.457031 48.457031 C 197.09375 55.871094 201.53125 57.203125 208.238281 52.816406 C 212.769531 49.859375 218.824219 53.429688 218.441406 58.820312 C 217.890625 66.585938 221.015625 69.707031 228.785156 69.15625 C 234.183594 68.777344 237.753906 74.828125 234.792969 79.351562 C 230.40625 86.058594 231.738281 90.492188 239.152344 94.128906 C 244.210938 96.605469 244.210938 103.695312 239.152344 106.171875 " fill-opacity="1" fill-rule="nonzero"/><path fill="#fed584" d="M 192.445312 62.527344 L 200.714844 79.265625 C 201.527344 80.914062 203.101562 82.058594 204.921875 82.324219 L 223.410156 85.007812 C 227.996094 85.675781 229.828125 91.308594 226.511719 94.542969 L 213.132812 107.574219 C 211.816406 108.855469 211.214844 110.707031 211.523438 112.519531 L 214.683594 130.917969 C 215.464844 135.484375 210.671875 138.964844 206.566406 136.8125 L 190.03125 128.125 C 188.402344 127.269531 186.457031 127.269531 184.824219 128.125 L 168.292969 136.8125 C 164.1875 138.964844 159.390625 135.484375 160.175781 130.917969 L 163.332031 112.519531 C 163.644531 110.707031 163.042969 108.855469 161.726562 107.574219 L 148.347656 94.542969 C 145.027344 91.308594 146.859375 85.675781 151.449219 85.007812 L 169.933594 82.324219 C 171.757812 82.058594 173.332031 80.914062 174.148438 79.265625 L 182.414062 62.527344 C 184.464844 58.371094 190.390625 58.371094 192.445312 62.527344 " fill-opacity="1" fill-rule="nonzero"/><path fill="#fed584" d="M 162.234375 72.28125 C 163.152344 72.621094 163.914062 73.125 164.640625 73.671875 C 165.375 74.210938 165.925781 74.949219 166.550781 75.601562 C 167.800781 76.917969 169.039062 78.242188 170.234375 79.617188 L 170.226562 79.710938 L 170.144531 79.714844 C 168.671875 78.644531 167.246094 77.523438 165.824219 76.394531 C 165.121094 75.824219 164.335938 75.34375 163.734375 74.660156 C 163.128906 73.980469 162.558594 73.265625 162.144531 72.378906 L 162.179688 72.285156 L 162.234375 72.28125 " fill-opacity="1" fill-rule="nonzero"/><path fill="#fed584" d="M 159.144531 111.351562 C 157.929688 112.460938 156.671875 113.515625 155.414062 114.558594 C 154.777344 115.078125 154.210938 115.691406 153.488281 116.078125 C 152.769531 116.476562 152.019531 116.828125 151.140625 117 L 151.054688 116.941406 L 151.0625 116.890625 C 151.515625 116.117188 152.101562 115.53125 152.714844 114.984375 C 153.324219 114.433594 154.09375 114.105469 154.792969 113.683594 C 156.199219 112.847656 157.613281 112.015625 159.066406 111.242188 L 159.160156 111.273438 L 159.144531 111.351562 " fill-opacity="1" fill-rule="nonzero"/><path fill="#fed584" d="M 187.496094 129.625 C 187.703125 131.503906 187.839844 133.382812 187.964844 135.257812 C 188.023438 136.195312 188.195312 137.136719 188.097656 138.074219 C 188.007812 139.011719 187.867188 139.949219 187.496094 140.890625 L 187.402344 140.929688 L 187.363281 140.890625 C 186.992188 139.949219 186.847656 139.011719 186.757812 138.074219 C 186.660156 137.136719 186.832031 136.195312 186.890625 135.257812 C 187.019531 133.382812 187.15625 131.503906 187.363281 129.625 L 187.4375 129.566406 L 187.496094 129.625 " fill-opacity="1" fill-rule="nonzero"/><path fill="#fed584" d="M 214.539062 111.234375 C 216.335938 111.503906 218.117188 111.84375 219.894531 112.191406 C 220.78125 112.371094 221.699219 112.4375 222.546875 112.769531 C 223.394531 113.089844 224.230469 113.464844 225.003906 114.054688 L 225.019531 114.15625 L 224.972656 114.1875 C 224.003906 114.308594 223.09375 114.210938 222.195312 114.0625 C 221.300781 113.921875 220.472656 113.519531 219.613281 113.226562 C 217.902344 112.632812 216.195312 112.03125 214.503906 111.363281 L 214.464844 111.277344 L 214.539062 111.234375 " fill-opacity="1" fill-rule="nonzero"/><path fill="#fed584" d="M 204.617188 79.625 C 205.636719 78.011719 206.707031 76.4375 207.789062 74.871094 C 208.332031 74.09375 208.785156 73.242188 209.453125 72.558594 C 210.117188 71.871094 210.816406 71.214844 211.699219 70.703125 L 211.796875 70.730469 L 211.800781 70.785156 C 211.5 71.757812 211.023438 72.59375 210.507812 73.390625 C 209.992188 74.195312 209.265625 74.832031 208.628906 75.539062 C 207.351562 76.945312 206.0625 78.351562 204.722656 79.707031 L 204.625 79.710938 L 204.617188 79.625 " fill-opacity="1" fill-rule="nonzero"/><path fill="#b73977" d="M 218.824219 158.675781 L 263.722656 182.65625 L 234.050781 137.464844 C 234.050781 137.464844 222.953125 138.046875 226.050781 149.910156 C 226.050781 149.910156 228.203125 157.128906 218.824219 158.675781 " fill-opacity="1" fill-rule="nonzero"/><path fill="#b73977" d="M 151.179688 156.921875 L 155.101562 227.300781 L 178.570312 161.5 C 178.570312 161.5 173.777344 149.796875 162.636719 158.554688 C 162.636719 158.554688 157.761719 164.335938 151.179688 156.921875 " fill-opacity="1" fill-rule="nonzero"/><path fill="#ffe2ae" d="M 210.386719 118.613281 C 210.589844 119.144531 211.1875 119.417969 211.589844 119.820312 L 210.117188 111.230469 C 209.828125 109.550781 210.382812 107.839844 211.605469 106.648438 L 224.003906 94.570312 C 227.078125 91.574219 225.382812 86.351562 221.128906 85.734375 L 203.996094 83.246094 C 202.308594 83 200.847656 81.941406 200.09375 80.414062 L 192.433594 64.898438 C 190.53125 61.046875 185.035156 61.046875 183.132812 64.898438 L 175.472656 80.414062 C 175.121094 81.121094 174.617188 81.71875 174.011719 82.191406 C 185.539062 80.800781 198.828125 88.28125 210.386719 118.613281 " fill-opacity="1" fill-rule="nonzero"/><path fill="#f8b89c" d="M 205.285156 313.15625 C 204.066406 311.644531 201.15625 308.847656 200.09375 306.273438 C 191.496094 285.386719 191.511719 255.238281 203.769531 237.402344 C 215.785156 219.910156 236.117188 210.214844 248.425781 192.902344 C 253.097656 186.328125 259.6875 181.160156 268.246094 184.269531 C 270.492188 185.085938 272.5625 186.4375 274.074219 188.289062 C 279.039062 194.371094 278.03125 202.003906 275.578125 208.941406 C 273.320312 215.324219 253.828125 242.761719 250.582031 252.304688 C 246.390625 264.617188 247.726562 280.859375 249.058594 293.664062 C 249.261719 295.632812 248.675781 297.28125 248.570312 299.253906 C 248.464844 301.195312 248.820312 303.316406 247.910156 305.109375 C 247.328125 306.265625 246.296875 307.328125 245.53125 308.375 C 244.238281 310.144531 243.503906 311.75 241.429688 312.582031 C 238.699219 313.683594 235.570312 314.707031 232.746094 315.503906 C 228.53125 316.691406 222.753906 317.078125 218.484375 315.863281 C 215.992188 315.152344 214.007812 313.3125 211.476562 312.695312 C 205.449219 311.21875 208.414062 317.054688 205.285156 313.15625 " fill-opacity="1" fill-rule="nonzero"/><path fill="#f8b89c" d="M 264.96875 186.300781 C 266.964844 179.960938 268.316406 173.417969 268.960938 166.800781 C 270.089844 155.21875 266.382812 143.046875 262.792969 132.109375 C 260.820312 126.101562 259.441406 119.511719 261.464844 113.519531 C 263.335938 107.984375 268.855469 99.734375 275.683594 100.234375 C 286.316406 101.011719 317.550781 194.753906 314.269531 204.558594 C 311.15625 213.855469 250.910156 289.03125 250.070312 307.984375 C 249.804688 314.070312 244.777344 305.0625 238.59375 302.933594 C 234.980469 301.695312 232.347656 300.515625 229.195312 298.269531 C 226.253906 296.171875 225.027344 293.523438 223.558594 290.261719 C 221.828125 286.414062 220.835938 282.390625 220.472656 278.195312 C 220.039062 273.152344 221.21875 268.585938 222.179688 263.65625 C 227.984375 233.855469 255.964844 214.898438 264.96875 186.300781 " fill-opacity="1" fill-rule="nonzero"/><path fill="#dca58c" d="M 278.953125 104.5625 C 278.953125 104.5625 311.304688 183.445312 303.859375 204.878906 C 303.859375 204.878906 245.6875 272.875 250.363281 298.363281 C 250.363281 298.363281 274.324219 257.238281 311.355469 206.949219 C 311.355469 206.949219 313.503906 205.597656 310.378906 191.585938 C 307.25 177.570312 297.039062 131.171875 278.953125 104.5625 " fill-opacity="1" fill-rule="nonzero"/><path fill="#c99781" d="M 265.84375 183.402344 C 269.640625 184.820312 273.171875 187.199219 275.570312 190.648438 C 276.183594 191.5 276.648438 192.449219 277.078125 193.414062 C 277.449219 194.402344 277.785156 195.417969 277.933594 196.46875 C 278.296875 198.566406 278.1875 200.730469 277.746094 202.792969 C 277.289062 204.855469 276.523438 206.816406 275.613281 208.683594 L 274.898438 210.070312 L 274.113281 211.410156 C 273.585938 212.316406 273.0625 213.128906 272.539062 213.992188 C 270.433594 217.390625 268.40625 220.835938 266.410156 224.292969 C 264.441406 227.773438 262.507812 231.265625 260.691406 234.820312 C 258.84375 238.351562 256.957031 241.855469 255.050781 245.34375 C 253.113281 248.820312 251.253906 252.328125 249.453125 255.859375 C 247.695312 259.414062 245.914062 262.949219 244.804688 266.789062 L 244.394531 266.75 C 244.417969 265.738281 244.386719 264.679688 244.566406 263.675781 L 244.78125 262.140625 L 245.101562 260.640625 C 245.308594 259.632812 245.582031 258.648438 245.863281 257.667969 C 246.125 256.675781 246.449219 255.707031 246.78125 254.746094 C 247.394531 252.796875 248.179688 250.929688 248.917969 249.035156 C 249.707031 247.167969 250.527344 245.3125 251.382812 243.480469 C 254.78125 236.117188 259.28125 229.382812 263.59375 222.585938 C 265.789062 219.203125 268.003906 215.84375 270.296875 212.53125 C 270.855469 211.707031 271.464844 210.863281 271.984375 210.058594 L 272.789062 208.84375 L 273.515625 207.585938 C 274.449219 205.902344 275.242188 204.140625 275.746094 202.304688 C 276.808594 198.671875 276.539062 194.632812 274.5 191.332031 C 273.523438 189.679688 272.199219 188.210938 270.691406 186.949219 C 269.1875 185.691406 267.5 184.59375 265.703125 183.785156 L 265.84375 183.402344 " fill-opacity="1" fill-rule="nonzero"/><path fill="#c99781" d="M 254.507812 189.414062 C 253.300781 191.039062 252.246094 192.742188 251.578125 194.527344 C 250.882812 196.292969 250.695312 198.152344 251.277344 199.652344 C 251.578125 200.398438 252.058594 201.0625 252.652344 201.65625 C 252.949219 201.964844 253.277344 202.210938 253.640625 202.503906 L 254.824219 203.40625 C 256.398438 204.589844 257.976562 205.785156 259.5625 206.652344 C 260.34375 207.097656 261.140625 207.441406 261.828125 207.53125 C 262.519531 207.640625 263.085938 207.535156 263.714844 207.171875 C 264.34375 206.800781 264.96875 206.203125 265.550781 205.503906 C 266.152344 204.769531 266.773438 203.972656 267.382812 203.199219 C 269.796875 200.046875 272.175781 196.820312 274.742188 193.679688 C 273.28125 197.46875 271.460938 201.074219 269.371094 204.554688 C 268.847656 205.433594 268.328125 206.285156 267.71875 207.148438 C 267.097656 208.046875 266.328125 208.929688 265.269531 209.652344 C 264.222656 210.390625 262.714844 210.738281 261.421875 210.550781 C 260.113281 210.378906 259.042969 209.882812 258.082031 209.359375 C 256.152344 208.277344 254.558594 206.988281 252.996094 205.683594 L 251.847656 204.691406 C 251.445312 204.335938 251.011719 203.929688 250.644531 203.484375 C 249.886719 202.605469 249.28125 201.527344 248.984375 200.359375 C 248.699219 199.1875 248.695312 197.976562 248.957031 196.871094 C 249.226562 195.773438 249.675781 194.765625 250.226562 193.855469 C 251.371094 192.0625 252.820312 190.5625 254.507812 189.414062 " fill-opacity="1" fill-rule="nonzero"/><path fill="#c99781" d="M 243.8125 203.449219 C 245.261719 204.472656 246.605469 205.546875 247.933594 206.628906 L 251.902344 209.804688 C 253.230469 210.839844 254.5625 211.84375 255.960938 212.71875 C 257.375 213.570312 258.8125 214.371094 260.578125 214.566406 C 259.75 214.921875 258.792969 214.957031 257.882812 214.863281 C 256.972656 214.746094 256.085938 214.496094 255.242188 214.15625 C 253.546875 213.492188 252.03125 212.511719 250.632812 211.425781 C 249.242188 210.332031 247.96875 209.109375 246.824219 207.777344 C 245.671875 206.453125 244.625 205.035156 243.8125 203.449219 " fill-opacity="1" fill-rule="nonzero"/><path fill="#c99781" d="M 225.105469 223.953125 C 226.765625 225.125 228.300781 226.355469 229.824219 227.59375 L 234.367188 231.230469 C 235.882812 232.414062 237.410156 233.558594 239.011719 234.566406 C 240.628906 235.539062 242.273438 236.453125 244.296875 236.679688 C 243.347656 237.085938 242.253906 237.125 241.210938 237.019531 C 240.167969 236.882812 239.152344 236.597656 238.1875 236.210938 C 236.25 235.449219 234.511719 234.328125 232.914062 233.085938 C 231.320312 231.832031 229.859375 230.429688 228.550781 228.90625 C 227.234375 227.390625 226.035156 225.769531 225.105469 223.953125 " fill-opacity="1" fill-rule="nonzero"/><path fill="#c99781" d="M 268.898438 105.046875 C 270.117188 107.914062 271.175781 110.652344 272.507812 113.1875 C 273.160156 114.460938 273.855469 115.683594 274.625 116.847656 C 275.378906 118.023438 276.195312 119.140625 277.09375 120.195312 C 277.957031 121.277344 278.9375 122.253906 279.933594 123.230469 L 280.703125 123.941406 L 280.898438 124.121094 L 281.050781 124.253906 L 281.21875 124.402344 C 281.324219 124.488281 281.414062 124.539062 281.546875 124.5625 C 281.671875 124.609375 281.855469 124.609375 282.074219 124.5625 C 282.515625 124.484375 283.082031 124.21875 283.628906 123.859375 C 284.179688 123.507812 284.734375 123.074219 285.277344 122.601562 C 286.375 121.660156 287.429688 120.585938 288.535156 119.484375 C 288.210938 121.019531 287.632812 122.476562 286.855469 123.875 C 286.453125 124.570312 285.996094 125.246094 285.425781 125.890625 C 284.851562 126.523438 284.179688 127.152344 283.210938 127.601562 C 282.292969 128.066406 280.851562 128.226562 279.699219 127.703125 C 279.402344 127.589844 279.144531 127.445312 278.898438 127.289062 C 278.753906 127.203125 278.667969 127.140625 278.597656 127.085938 L 278.355469 126.90625 L 277.386719 126.195312 C 276.136719 125.183594 274.945312 124.078125 273.929688 122.820312 C 273.398438 122.207031 272.945312 121.535156 272.472656 120.882812 C 272.058594 120.191406 271.605469 119.523438 271.257812 118.796875 C 270.507812 117.375 269.921875 115.875 269.503906 114.34375 C 268.648438 111.292969 268.429688 108.121094 268.898438 105.046875 " fill-opacity="1" fill-rule="nonzero"/><path fill="#c99781" d="M 282.605469 133.363281 C 283.453125 132.984375 284.28125 132.558594 285.078125 132.085938 C 285.875 131.625 286.65625 131.128906 287.402344 130.589844 C 288.148438 130.054688 288.820312 129.421875 289.574219 128.90625 C 290.339844 128.398438 291.082031 127.863281 291.949219 127.417969 L 292.023438 127.4375 L 292.023438 127.492188 C 291.550781 128.339844 290.921875 129.074219 290.21875 129.710938 C 289.523438 130.371094 288.660156 130.808594 287.84375 131.28125 C 286.195312 132.210938 284.457031 132.992188 282.632812 133.460938 L 282.574219 133.421875 L 282.605469 133.363281 " fill-opacity="1" fill-rule="nonzero"/><path fill="#c99781" d="M 297.796875 205.207031 C 299.226562 205.347656 300.664062 205.367188 302.089844 205.324219 C 303.519531 205.289062 304.945312 205.171875 306.347656 204.964844 C 307.753906 204.742188 309.101562 204.335938 310.460938 204.003906 C 311.8125 203.628906 313.117188 203.164062 314.480469 202.621094 L 314.546875 202.648438 L 314.535156 202.707031 C 313.480469 203.730469 312.152344 204.460938 310.769531 204.984375 C 309.371094 205.480469 307.894531 205.644531 306.441406 205.78125 C 303.53125 206.007812 300.617188 205.847656 297.78125 205.308594 L 297.738281 205.25 L 297.796875 205.207031 " fill-opacity="1" fill-rule="nonzero"/><path fill="#c99781" d="M 289.558594 170.316406 C 290.980469 170.246094 292.394531 170.003906 293.773438 169.671875 C 295.15625 169.355469 296.515625 168.933594 297.820312 168.394531 C 299.128906 167.871094 300.359375 167.183594 301.605469 166.550781 C 302.878906 165.941406 304.074219 165.210938 305.382812 164.558594 L 305.453125 164.578125 L 305.445312 164.636719 C 304.488281 165.734375 303.363281 166.695312 302.109375 167.445312 C 300.875 168.238281 299.476562 168.71875 298.097656 169.167969 C 295.335938 170.070312 292.433594 170.535156 289.554688 170.417969 L 289.503906 170.363281 L 289.558594 170.316406 " fill-opacity="1" fill-rule="nonzero"/><g clip-path="url(#9ffe186d6b)"><path fill="#46b5ad" d="M 257.332031 337.132812 L 258.25 302.464844 L 192.632812 301.992188 L 193.667969 337.132812 L 257.332031 337.132812 " fill-opacity="1" fill-rule="nonzero"/></g><path fill="#39928b" d="M 225.515625 303.40625 C 225.515625 303.40625 242.730469 313.625 242.078125 335.65625 L 254.835938 335.65625 L 256.503906 303.914062 L 225.515625 303.40625 " fill-opacity="1" fill-rule="nonzero"/><path fill="#ffffff" d="M 199.59375 292.464844 C 197.757812 286.710938 196.800781 280.703125 196.460938 274.664062 C 196.183594 268.621094 196.617188 262.527344 197.921875 256.585938 C 198.582031 253.617188 199.429688 250.683594 200.511719 247.832031 C 201.632812 244.996094 202.960938 242.234375 204.570312 239.640625 C 207.820312 234.476562 211.929688 229.859375 216.714844 226.164062 L 216.816406 226.28125 C 212.644531 230.628906 208.839844 235.265625 205.90625 240.4375 L 204.8125 242.375 C 204.445312 243.023438 204.144531 243.703125 203.804688 244.363281 C 203.109375 245.671875 202.546875 247.050781 201.941406 248.40625 C 200.800781 251.148438 199.875 253.980469 199.136719 256.867188 C 197.703125 262.65625 197.121094 268.652344 197.242188 274.640625 C 197.371094 280.617188 198.113281 286.632812 199.742188 292.414062 L 199.59375 292.464844 " fill-opacity="1" fill-rule="nonzero"/><path fill="#f8b89c" d="M 169.574219 313.15625 C 170.792969 311.644531 173.703125 308.847656 174.761719 306.273438 C 183.363281 285.386719 183.34375 255.238281 171.089844 237.402344 C 159.074219 219.910156 138.738281 210.214844 126.429688 192.902344 C 121.761719 186.328125 115.171875 181.160156 106.613281 184.269531 C 104.367188 185.085938 102.296875 186.4375 100.785156 188.289062 C 95.820312 194.371094 96.824219 202.003906 99.277344 208.941406 C 101.535156 215.324219 121.03125 242.761719 124.277344 252.304688 C 128.46875 264.617188 127.128906 280.859375 125.796875 293.664062 C 125.59375 295.632812 126.183594 297.28125 126.289062 299.253906 C 126.394531 301.195312 126.039062 303.316406 126.945312 305.109375 C 127.53125 306.265625 128.558594 307.328125 129.324219 308.375 C 130.621094 310.144531 131.355469 311.75 133.429688 312.582031 C 136.15625 313.683594 139.289062 314.707031 142.113281 315.503906 C 146.328125 316.691406 152.105469 317.078125 156.375 315.863281 C 158.867188 315.152344 160.851562 313.3125 163.378906 312.695312 C 169.40625 311.21875 166.445312 317.054688 169.574219 313.15625 " fill-opacity="1" fill-rule="nonzero"/><path fill="#f8b89c" d="M 109.890625 186.300781 C 107.894531 179.960938 106.542969 173.417969 105.898438 166.800781 C 104.769531 155.214844 108.476562 143.046875 112.066406 132.109375 C 114.039062 126.101562 115.417969 119.511719 113.394531 113.519531 C 111.523438 107.984375 106.003906 99.734375 99.175781 100.230469 C 88.539062 101.011719 57.304688 194.753906 60.585938 204.558594 C 63.699219 213.855469 123.949219 289.03125 124.785156 307.984375 C 125.054688 314.070312 130.078125 305.0625 136.265625 302.933594 C 139.878906 301.695312 142.511719 300.515625 145.660156 298.269531 C 148.601562 296.171875 149.828125 293.523438 151.296875 290.261719 C 153.03125 286.414062 154.023438 282.390625 154.386719 278.195312 C 154.820312 273.152344 153.640625 268.585938 152.679688 263.65625 C 146.871094 233.855469 118.894531 214.898438 109.890625 186.300781 " fill-opacity="1" fill-rule="nonzero"/><path fill="#dca58c" d="M 95.90625 104.5625 C 95.90625 104.5625 63.554688 183.445312 71 204.878906 C 71 204.878906 129.171875 272.875 124.496094 298.363281 C 124.496094 298.363281 100.535156 257.238281 63.503906 206.949219 C 63.503906 206.949219 61.355469 205.597656 64.484375 191.585938 C 67.609375 177.570312 77.820312 131.171875 95.90625 104.5625 " fill-opacity="1" fill-rule="nonzero"/><path fill="#c99781" d="M 109.15625 183.785156 C 107.359375 184.59375 105.671875 185.691406 104.167969 186.949219 C 102.660156 188.210938 101.332031 189.679688 100.355469 191.332031 C 98.320312 194.632812 98.046875 198.671875 99.113281 202.304688 C 99.617188 204.140625 100.410156 205.902344 101.34375 207.585938 L 102.070312 208.84375 L 102.871094 210.058594 C 103.394531 210.863281 104 211.707031 104.5625 212.53125 C 106.855469 215.84375 109.070312 219.203125 111.261719 222.585938 C 115.578125 229.382812 120.078125 236.117188 123.476562 243.480469 C 124.332031 245.3125 125.152344 247.167969 125.941406 249.035156 C 126.675781 250.929688 127.464844 252.796875 128.078125 254.746094 C 128.40625 255.707031 128.734375 256.675781 128.996094 257.667969 C 129.273438 258.648438 129.546875 259.632812 129.757812 260.640625 L 130.074219 262.140625 L 130.292969 263.675781 C 130.472656 264.679688 130.4375 265.738281 130.460938 266.75 L 130.054688 266.789062 C 128.945312 262.949219 127.164062 259.414062 125.40625 255.859375 C 123.601562 252.328125 121.746094 248.820312 119.804688 245.34375 C 117.902344 241.855469 116.011719 238.351562 114.167969 234.820312 C 112.351562 231.265625 110.414062 227.773438 108.449219 224.292969 C 106.453125 220.835938 104.425781 217.390625 102.320312 213.992188 C 101.792969 213.128906 101.273438 212.316406 100.746094 211.410156 L 99.957031 210.070312 L 99.246094 208.683594 C 98.335938 206.816406 97.566406 204.855469 97.113281 202.792969 C 96.667969 200.730469 96.5625 198.566406 96.921875 196.46875 C 97.074219 195.417969 97.410156 194.402344 97.78125 193.414062 C 98.210938 192.449219 98.675781 191.5 99.289062 190.648438 C 101.6875 187.199219 105.21875 184.820312 109.011719 183.402344 L 109.15625 183.785156 " fill-opacity="1" fill-rule="nonzero"/><path fill="#c99781" d="M 120.351562 189.414062 C 122.035156 190.5625 123.484375 192.0625 124.628906 193.855469 C 125.183594 194.765625 125.628906 195.773438 125.902344 196.871094 C 126.164062 197.976562 126.160156 199.1875 125.875 200.359375 C 125.578125 201.527344 124.972656 202.605469 124.214844 203.484375 C 123.847656 203.929688 123.410156 204.335938 123.011719 204.691406 L 121.859375 205.683594 C 120.300781 206.988281 118.703125 208.277344 116.777344 209.359375 C 115.816406 209.882812 114.746094 210.378906 113.4375 210.550781 C 112.144531 210.738281 110.632812 210.390625 109.585938 209.652344 C 108.53125 208.929688 107.761719 208.046875 107.140625 207.148438 C 106.53125 206.285156 106.007812 205.433594 105.484375 204.554688 C 103.394531 201.074219 101.574219 197.46875 100.113281 193.679688 C 102.683594 196.820312 105.0625 200.046875 107.476562 203.199219 C 108.082031 203.972656 108.707031 204.769531 109.304688 205.503906 C 109.890625 206.203125 110.515625 206.800781 111.140625 207.171875 C 111.769531 207.535156 112.335938 207.640625 113.03125 207.53125 C 113.71875 207.441406 114.515625 207.097656 115.296875 206.652344 C 116.882812 205.785156 118.460938 204.589844 120.035156 203.40625 L 121.21875 202.503906 C 121.578125 202.210938 121.910156 201.964844 122.207031 201.65625 C 122.800781 201.0625 123.28125 200.398438 123.582031 199.652344 C 124.164062 198.152344 123.976562 196.292969 123.28125 194.527344 C 122.613281 192.742188 121.554688 191.039062 120.351562 189.414062 " fill-opacity="1" fill-rule="nonzero"/><path fill="#c99781" d="M 131.046875 203.449219 C 130.234375 205.035156 129.183594 206.453125 128.035156 207.777344 C 126.890625 209.109375 125.617188 210.332031 124.222656 211.425781 C 122.824219 212.511719 121.308594 213.492188 119.613281 214.15625 C 118.773438 214.496094 117.886719 214.746094 116.972656 214.863281 C 116.0625 214.957031 115.109375 214.921875 114.28125 214.566406 C 116.046875 214.371094 117.484375 213.570312 118.898438 212.71875 C 120.296875 211.84375 121.628906 210.839844 122.953125 209.804688 L 126.921875 206.628906 C 128.25 205.546875 129.59375 204.472656 131.046875 203.449219 " fill-opacity="1" fill-rule="nonzero"/><path fill="#c99781" d="M 149.753906 223.953125 C 148.824219 225.769531 147.621094 227.390625 146.308594 228.90625 C 144.996094 230.429688 143.539062 231.832031 141.945312 233.085938 C 140.34375 234.328125 138.609375 235.449219 136.667969 236.210938 C 135.707031 236.597656 134.691406 236.882812 133.644531 237.019531 C 132.601562 237.125 131.511719 237.085938 130.5625 236.679688 C 132.582031 236.453125 134.230469 235.539062 135.847656 234.566406 C 137.449219 233.558594 138.976562 232.414062 140.492188 231.230469 L 145.035156 227.59375 C 146.554688 226.355469 148.09375 225.125 149.753906 223.953125 " fill-opacity="1" fill-rule="nonzero"/><path fill="#c99781" d="M 105.957031 105.046875 C 106.429688 108.121094 106.210938 111.292969 105.355469 114.34375 C 104.9375 115.875 104.351562 117.375 103.601562 118.796875 C 103.253906 119.523438 102.796875 120.191406 102.382812 120.882812 C 101.910156 121.535156 101.457031 122.207031 100.929688 122.820312 C 99.910156 124.078125 98.722656 125.183594 97.472656 126.195312 L 96.503906 126.90625 L 96.261719 127.085938 C 96.1875 127.140625 96.105469 127.203125 95.960938 127.289062 C 95.710938 127.445312 95.457031 127.589844 95.160156 127.703125 C 94.007812 128.226562 92.5625 128.066406 91.648438 127.601562 C 90.679688 127.152344 90.007812 126.523438 89.433594 125.890625 C 88.859375 125.246094 88.402344 124.570312 88.003906 123.875 C 87.226562 122.476562 86.644531 121.019531 86.324219 119.484375 C 87.429688 120.585938 88.484375 121.660156 89.582031 122.601562 C 90.125 123.074219 90.679688 123.507812 91.230469 123.859375 C 91.777344 124.21875 92.339844 124.484375 92.785156 124.5625 C 93.003906 124.609375 93.1875 124.609375 93.3125 124.5625 C 93.445312 124.539062 93.53125 124.488281 93.640625 124.402344 L 93.808594 124.253906 L 93.960938 124.121094 L 94.152344 123.941406 L 94.925781 123.230469 C 95.917969 122.253906 96.902344 121.277344 97.765625 120.195312 C 98.660156 119.140625 99.480469 118.023438 100.230469 116.847656 C 101.003906 115.683594 101.699219 114.460938 102.347656 113.1875 C 103.683594 110.652344 104.738281 107.914062 105.957031 105.046875 " fill-opacity="1" fill-rule="nonzero"/><path fill="#c99781" d="M 92.226562 133.460938 C 90.398438 132.992188 88.664062 132.210938 87.015625 131.285156 C 86.199219 130.808594 85.335938 130.371094 84.644531 129.710938 C 83.9375 129.074219 83.308594 128.339844 82.835938 127.492188 L 82.859375 127.417969 L 82.910156 127.417969 C 83.777344 127.863281 84.519531 128.398438 85.285156 128.910156 C 86.039062 129.425781 86.710938 130.054688 87.460938 130.589844 C 88.203125 131.128906 88.984375 131.625 89.785156 132.085938 C 90.578125 132.558594 91.40625 132.988281 92.257812 133.363281 L 92.285156 133.429688 L 92.226562 133.460938 " fill-opacity="1" fill-rule="nonzero"/><path fill="#c99781" d="M 77.078125 205.308594 C 74.238281 205.847656 71.324219 206.007812 68.414062 205.78125 C 66.960938 205.644531 65.484375 205.480469 64.085938 204.984375 C 62.707031 204.460938 61.378906 203.730469 60.320312 202.707031 L 60.320312 202.632812 L 60.375 202.621094 C 61.738281 203.164062 63.042969 203.628906 64.394531 204.003906 C 65.753906 204.332031 67.105469 204.738281 68.511719 204.960938 C 69.914062 205.171875 71.335938 205.289062 72.765625 205.324219 C 74.195312 205.367188 75.632812 205.34375 77.0625 205.207031 L 77.121094 205.25 L 77.078125 205.308594 " fill-opacity="1" fill-rule="nonzero"/><path fill="#c99781" d="M 85.304688 170.417969 C 82.421875 170.539062 79.523438 170.070312 76.757812 169.167969 C 75.382812 168.714844 73.980469 168.238281 72.746094 167.445312 C 71.496094 166.695312 70.367188 165.734375 69.410156 164.636719 L 69.417969 164.5625 L 69.476562 164.558594 C 70.785156 165.210938 71.980469 165.941406 73.25 166.550781 C 74.5 167.183594 75.726562 167.871094 77.039062 168.394531 C 78.34375 168.933594 79.699219 169.355469 81.085938 169.671875 C 82.464844 170.007812 83.875 170.246094 85.300781 170.316406 L 85.351562 170.367188 L 85.304688 170.417969 " fill-opacity="1" fill-rule="nonzero"/><g clip-path="url(#40f0ec0e25)"><path fill="#46b5ad" d="M 181.1875 337.132812 L 182.226562 301.992188 L 116.609375 302.464844 L 117.527344 337.132812 L 181.1875 337.132812 " fill-opacity="1" fill-rule="nonzero"/></g><path fill="#39928b" d="M 149.34375 303.40625 C 149.34375 303.40625 134.789062 313.625 135.441406 335.65625 L 119.152344 335.65625 L 118.351562 303.914062 L 149.34375 303.40625 " fill-opacity="1" fill-rule="nonzero"/><path fill="#ffffff" d="M 175.117188 292.414062 C 176.746094 286.632812 177.488281 280.617188 177.617188 274.640625 C 177.738281 268.652344 177.152344 262.65625 175.722656 256.867188 C 174.980469 253.980469 174.058594 251.148438 172.914062 248.40625 C 172.3125 247.050781 171.75 245.671875 171.050781 244.363281 C 170.714844 243.703125 170.410156 243.023438 170.046875 242.375 L 168.953125 240.4375 C 166.019531 235.265625 162.210938 230.628906 158.042969 226.28125 L 158.144531 226.164062 C 162.929688 229.859375 167.039062 234.476562 170.289062 239.640625 C 171.898438 242.234375 173.222656 244.996094 174.347656 247.832031 C 175.429688 250.683594 176.277344 253.617188 176.9375 256.585938 C 178.246094 262.527344 178.675781 268.621094 178.394531 274.664062 C 178.054688 280.703125 177.101562 286.710938 175.265625 292.464844 L 175.117188 292.414062 " fill-opacity="1" fill-rule="nonzero"/><path fill="#ffffff" d="M 197.71875 162.066406 L 203.304688 175.644531 L 208.816406 189.25 C 210.660156 193.78125 212.585938 198.285156 214.253906 202.882812 C 215.089844 205.183594 215.917969 207.488281 216.683594 209.8125 C 217.460938 212.136719 218.222656 214.464844 218.898438 216.828125 L 218.84375 216.925781 L 218.753906 216.882812 C 217.664062 214.683594 216.660156 212.445312 215.671875 210.207031 C 214.671875 207.96875 213.738281 205.707031 212.804688 203.445312 C 210.941406 198.917969 209.339844 194.292969 207.652344 189.699219 L 202.578125 175.925781 L 197.570312 162.121094 L 197.617188 162.019531 L 197.71875 162.066406 " fill-opacity="1" fill-rule="nonzero"/><path fill="#ffffff" d="M 141.429688 140.933594 L 134.910156 150.601562 L 128.328125 160.222656 C 126.128906 163.421875 124.035156 166.699219 121.6875 169.796875 C 119.34375 172.898438 116.949219 175.960938 114.34375 178.875 L 114.234375 178.878906 L 114.21875 178.785156 C 116.125 175.371094 118.246094 172.113281 120.417969 168.890625 C 122.585938 165.667969 125 162.617188 127.316406 159.496094 L 134.277344 150.148438 L 141.300781 140.84375 L 141.410156 140.828125 L 141.429688 140.933594 " fill-opacity="1" fill-rule="nonzero"/><path fill="#ffffff" d="M 151.917969 93.414062 L 160.101562 100.949219 L 164.167969 104.742188 C 165.625 106 166.691406 107.863281 166.960938 109.84375 C 167.132812 110.8125 167.03125 111.90625 166.910156 112.785156 L 166.605469 115.546875 L 166.257812 118.300781 L 165.839844 121.050781 C 165.222656 124.703125 164.539062 128.351562 163.601562 131.960938 L 163.503906 132.015625 L 163.449219 131.9375 C 163.539062 128.210938 163.886719 124.519531 164.296875 120.835938 L 164.652344 118.078125 L 165.078125 115.332031 L 165.542969 112.589844 C 165.714844 111.644531 165.824219 110.871094 165.726562 110 C 165.550781 108.292969 164.757812 106.691406 163.460938 105.46875 L 159.558594 101.503906 L 151.808594 93.523438 L 151.8125 93.414062 L 151.917969 93.414062 " fill-opacity="1" fill-rule="nonzero"/><path fill="#ffffff" d="M 126.960938 104.976562 C 129.054688 105.96875 131.082031 107.125 132.972656 108.515625 C 133.910156 109.21875 134.8125 109.988281 135.617188 110.882812 C 136.410156 111.773438 137.15625 112.785156 137.539062 114.03125 C 137.914062 115.273438 137.886719 116.523438 137.808594 117.730469 C 137.699219 118.9375 137.453125 120.113281 137.0625 121.234375 C 136.296875 123.476562 135.253906 125.597656 133.84375 127.492188 L 133.734375 127.507812 L 133.707031 127.421875 C 134.332031 125.167969 135.035156 122.992188 135.566406 120.800781 C 135.835938 119.707031 136.113281 118.625 136.28125 117.539062 C 136.460938 116.464844 136.5625 115.355469 136.332031 114.351562 C 136.105469 113.355469 135.523438 112.40625 134.84375 111.539062 C 134.160156 110.660156 133.34375 109.863281 132.484375 109.121094 C 130.777344 107.609375 128.875 106.285156 126.890625 105.113281 L 126.859375 105.007812 L 126.960938 104.976562 " fill-opacity="1" fill-rule="nonzero"/><path fill="#ffffff" d="M 132.585938 72.976562 C 134.007812 74.804688 135.300781 76.75 136.359375 78.84375 C 136.878906 79.894531 137.339844 80.984375 137.652344 82.144531 C 137.960938 83.296875 138.167969 84.53125 137.949219 85.820312 C 137.722656 87.097656 137.140625 88.199219 136.527344 89.242188 C 135.882812 90.273438 135.132812 91.210938 134.28125 92.039062 C 132.585938 93.695312 130.695312 95.117188 128.585938 96.175781 L 128.480469 96.140625 L 128.496094 96.050781 C 130.070312 94.320312 131.675781 92.691406 133.140625 90.976562 C 133.871094 90.121094 134.609375 89.28125 135.246094 88.386719 C 135.890625 87.507812 136.484375 86.5625 136.730469 85.5625 C 136.972656 84.570312 136.882812 83.464844 136.667969 82.378906 C 136.453125 81.289062 136.082031 80.210938 135.648438 79.160156 C 134.804688 77.042969 133.707031 75.003906 132.460938 73.066406 L 132.480469 72.957031 L 132.585938 72.976562 " fill-opacity="1" fill-rule="nonzero"/><path fill="#ffffff" d="M 154.636719 51.757812 C 154.566406 54.078125 154.320312 56.394531 153.804688 58.683594 C 153.535156 59.824219 153.195312 60.960938 152.695312 62.054688 C 152.195312 63.136719 151.570312 64.226562 150.578125 65.078125 C 149.589844 65.917969 148.4375 66.394531 147.300781 66.808594 C 146.148438 67.195312 144.96875 67.4375 143.785156 67.53125 C 141.421875 67.730469 139.0625 67.625 136.761719 67.09375 L 136.703125 67 L 136.769531 66.9375 C 139.085938 66.609375 141.363281 66.378906 143.585938 65.988281 C 144.695312 65.796875 145.796875 65.613281 146.859375 65.332031 C 147.917969 65.066406 148.976562 64.714844 149.804688 64.101562 C 150.621094 63.492188 151.261719 62.582031 151.785156 61.605469 C 152.316406 60.632812 152.71875 59.566406 153.054688 58.480469 C 153.753906 56.3125 154.207031 54.039062 154.480469 51.753906 L 154.566406 51.679688 L 154.636719 51.757812 " fill-opacity="1" fill-rule="nonzero"/><path fill="#ffffff" d="M 161.039062 153.695312 C 162.957031 152.390625 164.976562 151.226562 167.132812 150.300781 C 168.214844 149.847656 169.335938 149.453125 170.511719 149.21875 C 171.683594 148.984375 172.933594 148.851562 174.203125 149.152344 C 175.46875 149.453125 176.53125 150.109375 177.53125 150.785156 C 178.523438 151.492188 179.410156 152.300781 180.183594 153.203125 C 181.734375 154.996094 183.035156 156.96875 183.957031 159.140625 L 183.917969 159.246094 L 183.824219 159.222656 C 182.199219 157.542969 180.675781 155.835938 179.050781 154.273438 C 178.246094 153.488281 177.449219 152.703125 176.597656 152.011719 C 175.761719 151.3125 174.855469 150.660156 173.871094 150.351562 C 172.898438 150.046875 171.785156 150.066406 170.6875 150.214844 C 169.585938 150.359375 168.484375 150.660156 167.410156 151.027344 C 165.242188 151.734375 163.136719 152.703125 161.121094 153.828125 L 161.015625 153.800781 L 161.039062 153.695312 " fill-opacity="1" fill-rule="nonzero"/><path fill="#ffffff" d="M 137.894531 133.355469 C 140.207031 133.183594 142.539062 133.1875 144.871094 133.464844 C 146.035156 133.617188 147.199219 133.835938 148.339844 134.21875 C 149.46875 134.601562 150.617188 135.113281 151.566406 136.007812 C 152.507812 136.902344 153.101562 138 153.632812 139.085938 C 154.132812 140.191406 154.5 141.339844 154.714844 142.503906 C 155.160156 144.832031 155.296875 147.191406 155.007812 149.535156 L 154.921875 149.601562 L 154.851562 149.539062 C 154.285156 147.273438 153.820312 145.035156 153.199219 142.863281 C 152.894531 141.78125 152.597656 140.703125 152.207031 139.679688 C 151.835938 138.65625 151.375 137.640625 150.675781 136.878906 C 149.988281 136.128906 149.011719 135.589844 147.988281 135.167969 C 146.964844 134.742188 145.859375 134.453125 144.746094 134.234375 C 142.511719 133.761719 140.203125 133.546875 137.902344 133.511719 L 137.820312 133.4375 L 137.894531 133.355469 " fill-opacity="1" fill-rule="nonzero"/><path fill="#ffffff" d="M 178.132812 306.214844 L 178.445312 313.113281 L 178.679688 320.011719 C 178.746094 322.3125 178.949219 324.613281 178.835938 326.914062 C 178.730469 329.214844 178.5625 331.515625 178.132812 333.8125 L 177.980469 333.8125 C 177.550781 331.515625 177.382812 329.214844 177.277344 326.914062 C 177.164062 324.613281 177.367188 322.3125 177.433594 320.011719 L 177.667969 313.113281 L 177.980469 306.214844 L 178.132812 306.214844 " fill-opacity="1" fill-rule="nonzero"/></svg>